%TF.GenerationSoftware,KiCad,Pcbnew,(6.0.7)*%
%TF.CreationDate,2022-10-01T16:57:37-07:00*%
%TF.ProjectId,dso150_mod,64736f31-3530-45f6-9d6f-642e6b696361,1.0*%
%TF.SameCoordinates,Original*%
%TF.FileFunction,Drillmap*%
%TF.FilePolarity,Positive*%
%FSLAX45Y45*%
G04 Gerber Fmt 4.5, Leading zero omitted, Abs format (unit mm)*
G04 Created by KiCad (PCBNEW (6.0.7)) date 2022-10-01 16:57:37*
%MOMM*%
%LPD*%
G01*
G04 APERTURE LIST*
%ADD10C,0.100000*%
%ADD11C,0.200000*%
G04 APERTURE END LIST*
D10*
X13919200Y-7518400D02*
X13919200Y-12096800D01*
X14119200Y-12296800D02*
X15802000Y-12296800D01*
X13919200Y-12096800D02*
G75*
G03*
X14119200Y-12296800I200000J0D01*
G01*
X15802000Y-7318400D02*
X14119200Y-7318400D01*
X16002000Y-7518400D02*
G75*
G03*
X15802000Y-7318400I-200000J0D01*
G01*
X15802000Y-12296800D02*
G75*
G03*
X16002000Y-12096800I0J200000D01*
G01*
X16002000Y-12096800D02*
X16002000Y-7518400D01*
X14119200Y-7318400D02*
G75*
G03*
X13919200Y-7518400I0J-200000D01*
G01*
D11*
X14171819Y-12612276D02*
X14171819Y-12412276D01*
X14219438Y-12412276D01*
X14248009Y-12421800D01*
X14267057Y-12440848D01*
X14276581Y-12459895D01*
X14286105Y-12497990D01*
X14286105Y-12526562D01*
X14276581Y-12564657D01*
X14267057Y-12583705D01*
X14248009Y-12602752D01*
X14219438Y-12612276D01*
X14171819Y-12612276D01*
X14371819Y-12612276D02*
X14371819Y-12478943D01*
X14371819Y-12517038D02*
X14381343Y-12497990D01*
X14390867Y-12488467D01*
X14409914Y-12478943D01*
X14428962Y-12478943D01*
X14495628Y-12612276D02*
X14495628Y-12478943D01*
X14495628Y-12412276D02*
X14486105Y-12421800D01*
X14495628Y-12431324D01*
X14505152Y-12421800D01*
X14495628Y-12412276D01*
X14495628Y-12431324D01*
X14619438Y-12612276D02*
X14600390Y-12602752D01*
X14590867Y-12583705D01*
X14590867Y-12412276D01*
X14724200Y-12612276D02*
X14705152Y-12602752D01*
X14695628Y-12583705D01*
X14695628Y-12412276D01*
X14952771Y-12612276D02*
X14952771Y-12412276D01*
X15019438Y-12555133D01*
X15086105Y-12412276D01*
X15086105Y-12612276D01*
X15267057Y-12612276D02*
X15267057Y-12507514D01*
X15257533Y-12488467D01*
X15238486Y-12478943D01*
X15200390Y-12478943D01*
X15181343Y-12488467D01*
X15267057Y-12602752D02*
X15248009Y-12612276D01*
X15200390Y-12612276D01*
X15181343Y-12602752D01*
X15171819Y-12583705D01*
X15171819Y-12564657D01*
X15181343Y-12545609D01*
X15200390Y-12536086D01*
X15248009Y-12536086D01*
X15267057Y-12526562D01*
X15362295Y-12478943D02*
X15362295Y-12678943D01*
X15362295Y-12488467D02*
X15381343Y-12478943D01*
X15419438Y-12478943D01*
X15438486Y-12488467D01*
X15448009Y-12497990D01*
X15457533Y-12517038D01*
X15457533Y-12574181D01*
X15448009Y-12593228D01*
X15438486Y-12602752D01*
X15419438Y-12612276D01*
X15381343Y-12612276D01*
X15362295Y-12602752D01*
X15543248Y-12593228D02*
X15552771Y-12602752D01*
X15543248Y-12612276D01*
X15533724Y-12602752D01*
X15543248Y-12593228D01*
X15543248Y-12612276D01*
X15543248Y-12488467D02*
X15552771Y-12497990D01*
X15543248Y-12507514D01*
X15533724Y-12497990D01*
X15543248Y-12488467D01*
X15543248Y-12507514D01*
M02*
