%TF.GenerationSoftware,KiCad,Pcbnew,(6.0.7)*%
%TF.CreationDate,2022-10-01T16:55:56-07:00*%
%TF.ProjectId,dso150_mod,64736f31-3530-45f6-9d6f-642e6b696361,1.0*%
%TF.SameCoordinates,Original*%
%TF.FileFunction,Copper,L4,Bot*%
%TF.FilePolarity,Positive*%
%FSLAX46Y46*%
G04 Gerber Fmt 4.6, Leading zero omitted, Abs format (unit mm)*
G04 Created by KiCad (PCBNEW (6.0.7)) date 2022-10-01 16:55:56*
%MOMM*%
%LPD*%
G01*
G04 APERTURE LIST*
G04 Aperture macros list*
%AMRoundRect*
0 Rectangle with rounded corners*
0 $1 Rounding radius*
0 $2 $3 $4 $5 $6 $7 $8 $9 X,Y pos of 4 corners*
0 Add a 4 corners polygon primitive as box body*
4,1,4,$2,$3,$4,$5,$6,$7,$8,$9,$2,$3,0*
0 Add four circle primitives for the rounded corners*
1,1,$1+$1,$2,$3*
1,1,$1+$1,$4,$5*
1,1,$1+$1,$6,$7*
1,1,$1+$1,$8,$9*
0 Add four rect primitives between the rounded corners*
20,1,$1+$1,$2,$3,$4,$5,0*
20,1,$1+$1,$4,$5,$6,$7,0*
20,1,$1+$1,$6,$7,$8,$9,0*
20,1,$1+$1,$8,$9,$2,$3,0*%
G04 Aperture macros list end*
%TA.AperFunction,ComponentPad*%
%ADD10R,1.700000X1.700000*%
%TD*%
%TA.AperFunction,ComponentPad*%
%ADD11O,1.700000X1.700000*%
%TD*%
%TA.AperFunction,ComponentPad*%
%ADD12RoundRect,0.250000X0.625000X-0.350000X0.625000X0.350000X-0.625000X0.350000X-0.625000X-0.350000X0*%
%TD*%
%TA.AperFunction,ComponentPad*%
%ADD13O,1.750000X1.200000*%
%TD*%
%TA.AperFunction,ComponentPad*%
%ADD14C,2.500000*%
%TD*%
%TA.AperFunction,ComponentPad*%
%ADD15C,1.600000*%
%TD*%
%TA.AperFunction,ComponentPad*%
%ADD16C,0.700000*%
%TD*%
%TA.AperFunction,ComponentPad*%
%ADD17O,2.400000X0.900000*%
%TD*%
%TA.AperFunction,ComponentPad*%
%ADD18O,1.700000X0.900000*%
%TD*%
%TA.AperFunction,ViaPad*%
%ADD19C,0.800000*%
%TD*%
%TA.AperFunction,Conductor*%
%ADD20C,0.250000*%
%TD*%
G04 APERTURE END LIST*
D10*
%TO.P,J2,1,Pin_1*%
%TO.N,/D+*%
X155443000Y-75692000D03*
D11*
%TO.P,J2,2,Pin_2*%
%TO.N,/D-*%
X157983000Y-75692000D03*
%TD*%
D12*
%TO.P,J3,1,Pin_1*%
%TO.N,+BATT*%
X152998000Y-83042000D03*
D13*
%TO.P,J3,2,Pin_2*%
%TO.N,GND*%
X152998000Y-81042000D03*
%TD*%
D14*
%TO.P,SW1,*%
%TO.N,*%
X142113000Y-95171000D03*
X142113000Y-105171000D03*
D15*
%TO.P,SW1,1,A*%
%TO.N,Net-(SW1-Pad1)*%
X143383000Y-98171000D03*
%TO.P,SW1,2,B*%
%TO.N,+9V*%
X143383000Y-100171000D03*
%TO.P,SW1,3,C*%
%TO.N,unconnected-(SW1-Pad3)*%
X143383000Y-102171000D03*
%TO.P,SW1,4,A*%
%TO.N,unconnected-(SW1-Pad4)*%
X140883000Y-98171000D03*
%TO.P,SW1,5,B*%
%TO.N,GND*%
X140883000Y-100171000D03*
%TO.P,SW1,6,C*%
%TO.N,Net-(R8-Pad2)*%
X140883000Y-102171000D03*
%TD*%
D16*
%TO.P,J1,A1,GND*%
%TO.N,GND*%
X145249000Y-80083000D03*
%TO.P,J1,A4,VBUS*%
%TO.N,+5V*%
X145249000Y-80933000D03*
%TO.P,J1,A5,CC1*%
%TO.N,Net-(J1-PadA5)*%
X145249000Y-81783000D03*
%TO.P,J1,A6,D+*%
%TO.N,/D+*%
X145249000Y-82633000D03*
%TO.P,J1,A7,D-*%
%TO.N,/D-*%
X145249000Y-83483000D03*
%TO.P,J1,A8,SBU1*%
%TO.N,unconnected-(J1-PadA8)*%
X145249000Y-84333000D03*
%TO.P,J1,A9,VBUS*%
%TO.N,+5V*%
X145249000Y-85183000D03*
%TO.P,J1,A12,GND*%
%TO.N,GND*%
X145249000Y-86033000D03*
%TO.P,J1,B1,GND*%
X143899000Y-86033000D03*
%TO.P,J1,B4,VBUS*%
%TO.N,+5V*%
X143899000Y-85183000D03*
%TO.P,J1,B5,CC2*%
%TO.N,Net-(J1-PadB5)*%
X143899000Y-84333000D03*
%TO.P,J1,B6,D+*%
%TO.N,/D+*%
X143899000Y-83483000D03*
%TO.P,J1,B7,D-*%
%TO.N,/D-*%
X143899000Y-82633000D03*
%TO.P,J1,B8,SBU2*%
%TO.N,unconnected-(J1-PadB8)*%
X143899000Y-81783000D03*
%TO.P,J1,B9,VBUS*%
%TO.N,+5V*%
X143899000Y-80933000D03*
%TO.P,J1,B12,GND*%
%TO.N,GND*%
X143899000Y-80083000D03*
D17*
%TO.P,J1,S1,SHIELD*%
X144269000Y-87383000D03*
D18*
X140889000Y-78733000D03*
X140889000Y-87383000D03*
D17*
X144269000Y-78733000D03*
%TD*%
D10*
%TO.P,J6,1,Pin_1*%
%TO.N,unconnected-(J6-Pad1)*%
X143256000Y-75692000D03*
%TD*%
%TO.P,J4,1,Pin_1*%
%TO.N,Net-(SW1-Pad1)*%
X153670000Y-120396000D03*
D11*
%TO.P,J4,2,Pin_2*%
%TO.N,GND*%
X156210000Y-120396000D03*
%TD*%
D10*
%TO.P,J5,1,Pin_1*%
%TO.N,+3.3V*%
X143510000Y-108976000D03*
D11*
%TO.P,J5,2,Pin_2*%
%TO.N,GND*%
X143510000Y-111516000D03*
%TO.P,J5,3,Pin_3*%
%TO.N,unconnected-(J5-Pad3)*%
X143510000Y-114056000D03*
%TO.P,J5,4,Pin_4*%
%TO.N,unconnected-(J5-Pad4)*%
X143510000Y-116596000D03*
%TD*%
D19*
%TO.N,+5V*%
X141732000Y-92227500D03*
X155956000Y-87630000D03*
%TO.N,GND*%
X152400000Y-105410000D03*
X151384000Y-93218000D03*
X150368000Y-87630000D03*
X148336000Y-111760000D03*
X148907000Y-80518000D03*
X155956000Y-91694000D03*
X148907000Y-86106000D03*
X154940000Y-114554000D03*
%TO.N,+BATT*%
X155448000Y-93218000D03*
X154940000Y-101600000D03*
X157734000Y-101600000D03*
X156464000Y-99822000D03*
X153924000Y-105410000D03*
X156464000Y-103378000D03*
X155702000Y-108204000D03*
%TO.N,+9V*%
X149606000Y-114554000D03*
X153162000Y-114554000D03*
X148336000Y-109858000D03*
X151384000Y-114554000D03*
%TO.N,+3.3V*%
X149289000Y-76962000D03*
%TO.N,Net-(R8-Pad2)*%
X157480000Y-111252000D03*
%TD*%
D20*
%TO.N,+3.3V*%
X149289000Y-76962000D02*
X148082000Y-78169000D01*
X147828000Y-106680000D02*
X148082000Y-106426000D01*
X148082000Y-78169000D02*
X148082000Y-80518000D01*
X143510000Y-108976000D02*
X145532000Y-108976000D01*
X148082000Y-106426000D02*
X148082000Y-80518000D01*
X145532000Y-108976000D02*
X147828000Y-106680000D01*
%TO.N,/D+*%
X144101000Y-83483000D02*
X143899000Y-83483000D01*
X145249000Y-82633000D02*
X144951000Y-82633000D01*
X144951000Y-82633000D02*
X144101000Y-83483000D01*
%TO.N,Net-(R8-Pad2)*%
X139954000Y-107950000D02*
X142240000Y-110236000D01*
X148072695Y-110744000D02*
X156972000Y-110744000D01*
X156972000Y-110744000D02*
X157480000Y-111252000D01*
X139954000Y-103100000D02*
X139954000Y-107950000D01*
X142240000Y-110236000D02*
X147564695Y-110236000D01*
X147564695Y-110236000D02*
X148072695Y-110744000D01*
X140883000Y-102171000D02*
X139954000Y-103100000D01*
%TD*%
M02*
