M48
; DRILL file {KiCad (6.0.7)} date Sat Oct  1 16:57:17 2022
; FORMAT={-:-/ absolute / metric / decimal}
; #@! TF.CreationDate,2022-10-01T16:57:17-07:00
; #@! TF.GenerationSoftware,Kicad,Pcbnew,(6.0.7)
; #@! TF.FileFunction,Plated,1,4,PTH
FMAT,2
METRIC
; #@! TA.AperFunction,Plated,PTH,ViaDrill
T1C0.400
; #@! TA.AperFunction,Plated,PTH,ComponentDrill
T2C0.400
; #@! TA.AperFunction,Plated,PTH,ComponentDrill
T3C0.600
; #@! TA.AperFunction,Plated,PTH,ComponentDrill
T4C0.750
; #@! TA.AperFunction,Plated,PTH,ComponentDrill
T5C0.800
; #@! TA.AperFunction,Plated,PTH,ComponentDrill
T6C1.000
; #@! TA.AperFunction,Plated,PTH,ComponentDrill
T7C1.250
%
G90
G05
T1
X141.732Y-92.227
X148.336Y-109.858
X148.336Y-111.76
X148.907Y-80.518
X148.907Y-86.106
X149.289Y-76.962
X149.606Y-114.554
X150.368Y-87.63
X151.384Y-93.218
X151.384Y-114.554
X152.4Y-105.41
X153.162Y-114.554
X153.924Y-105.41
X154.94Y-101.6
X154.94Y-114.554
X155.448Y-93.218
X155.702Y-108.204
X155.956Y-87.63
X155.956Y-91.694
X156.464Y-99.822
X156.464Y-103.378
X157.48Y-111.252
X157.734Y-101.6
T2
X143.899Y-80.083
X143.899Y-80.933
X143.899Y-81.783
X143.899Y-82.633
X143.899Y-83.483
X143.899Y-84.333
X143.899Y-85.183
X143.899Y-86.033
X145.249Y-80.083
X145.249Y-80.933
X145.249Y-81.783
X145.249Y-82.633
X145.249Y-83.483
X145.249Y-84.333
X145.249Y-85.183
X145.249Y-86.033
T4
X152.998Y-81.042
X152.998Y-83.042
T5
X140.883Y-98.171
X140.883Y-100.171
X140.883Y-102.171
X143.383Y-98.171
X143.383Y-100.171
X143.383Y-102.171
T6
X143.256Y-75.692
X143.51Y-108.976
X143.51Y-111.516
X143.51Y-114.056
X143.51Y-116.596
X153.67Y-120.396
X155.443Y-75.692
X156.21Y-120.396
X157.983Y-75.692
T7
X142.113Y-95.171
X142.113Y-105.171
T3
G00X141.289Y-78.733
M15
G01X140.489Y-78.733
M16
G05
G00X141.289Y-87.383
M15
G01X140.489Y-87.383
M16
G05
G00X145.019Y-78.733
M15
G01X143.519Y-78.733
M16
G05
G00X145.019Y-87.383
M15
G01X143.519Y-87.383
M16
G05
T0
M30
