%TF.GenerationSoftware,KiCad,Pcbnew,(6.0.7)*%
%TF.CreationDate,2022-10-01T16:55:56-07:00*%
%TF.ProjectId,dso150_mod,64736f31-3530-45f6-9d6f-642e6b696361,1.0*%
%TF.SameCoordinates,Original*%
%TF.FileFunction,Copper,L1,Top*%
%TF.FilePolarity,Positive*%
%FSLAX46Y46*%
G04 Gerber Fmt 4.6, Leading zero omitted, Abs format (unit mm)*
G04 Created by KiCad (PCBNEW (6.0.7)) date 2022-10-01 16:55:56*
%MOMM*%
%LPD*%
G01*
G04 APERTURE LIST*
G04 Aperture macros list*
%AMRoundRect*
0 Rectangle with rounded corners*
0 $1 Rounding radius*
0 $2 $3 $4 $5 $6 $7 $8 $9 X,Y pos of 4 corners*
0 Add a 4 corners polygon primitive as box body*
4,1,4,$2,$3,$4,$5,$6,$7,$8,$9,$2,$3,0*
0 Add four circle primitives for the rounded corners*
1,1,$1+$1,$2,$3*
1,1,$1+$1,$4,$5*
1,1,$1+$1,$6,$7*
1,1,$1+$1,$8,$9*
0 Add four rect primitives between the rounded corners*
20,1,$1+$1,$2,$3,$4,$5,0*
20,1,$1+$1,$4,$5,$6,$7,0*
20,1,$1+$1,$6,$7,$8,$9,0*
20,1,$1+$1,$8,$9,$2,$3,0*%
G04 Aperture macros list end*
%TA.AperFunction,ComponentPad*%
%ADD10R,1.700000X1.700000*%
%TD*%
%TA.AperFunction,ComponentPad*%
%ADD11O,1.700000X1.700000*%
%TD*%
%TA.AperFunction,ComponentPad*%
%ADD12RoundRect,0.250000X0.625000X-0.350000X0.625000X0.350000X-0.625000X0.350000X-0.625000X-0.350000X0*%
%TD*%
%TA.AperFunction,ComponentPad*%
%ADD13O,1.750000X1.200000*%
%TD*%
%TA.AperFunction,SMDPad,CuDef*%
%ADD14RoundRect,0.225000X0.225000X0.250000X-0.225000X0.250000X-0.225000X-0.250000X0.225000X-0.250000X0*%
%TD*%
%TA.AperFunction,SMDPad,CuDef*%
%ADD15RoundRect,0.200000X0.275000X-0.200000X0.275000X0.200000X-0.275000X0.200000X-0.275000X-0.200000X0*%
%TD*%
%TA.AperFunction,SMDPad,CuDef*%
%ADD16RoundRect,0.225000X0.250000X-0.225000X0.250000X0.225000X-0.250000X0.225000X-0.250000X-0.225000X0*%
%TD*%
%TA.AperFunction,SMDPad,CuDef*%
%ADD17RoundRect,0.200000X-0.200000X-0.275000X0.200000X-0.275000X0.200000X0.275000X-0.200000X0.275000X0*%
%TD*%
%TA.AperFunction,SMDPad,CuDef*%
%ADD18R,1.500000X2.400000*%
%TD*%
%TA.AperFunction,SMDPad,CuDef*%
%ADD19RoundRect,0.218750X-0.256250X0.218750X-0.256250X-0.218750X0.256250X-0.218750X0.256250X0.218750X0*%
%TD*%
%TA.AperFunction,SMDPad,CuDef*%
%ADD20RoundRect,0.225000X-0.250000X0.225000X-0.250000X-0.225000X0.250000X-0.225000X0.250000X0.225000X0*%
%TD*%
%TA.AperFunction,ComponentPad*%
%ADD21C,2.500000*%
%TD*%
%TA.AperFunction,ComponentPad*%
%ADD22C,1.600000*%
%TD*%
%TA.AperFunction,ComponentPad*%
%ADD23C,0.700000*%
%TD*%
%TA.AperFunction,ComponentPad*%
%ADD24O,2.400000X0.900000*%
%TD*%
%TA.AperFunction,ComponentPad*%
%ADD25O,1.700000X0.900000*%
%TD*%
%TA.AperFunction,SMDPad,CuDef*%
%ADD26RoundRect,0.150000X0.150000X-0.512500X0.150000X0.512500X-0.150000X0.512500X-0.150000X-0.512500X0*%
%TD*%
%TA.AperFunction,SMDPad,CuDef*%
%ADD27R,1.100000X1.100000*%
%TD*%
%TA.AperFunction,SMDPad,CuDef*%
%ADD28RoundRect,0.200000X-0.275000X0.200000X-0.275000X-0.200000X0.275000X-0.200000X0.275000X0.200000X0*%
%TD*%
%TA.AperFunction,SMDPad,CuDef*%
%ADD29RoundRect,0.150000X-0.512500X-0.150000X0.512500X-0.150000X0.512500X0.150000X-0.512500X0.150000X0*%
%TD*%
%TA.AperFunction,ViaPad*%
%ADD30C,0.800000*%
%TD*%
%TA.AperFunction,Conductor*%
%ADD31C,0.250000*%
%TD*%
%TA.AperFunction,Conductor*%
%ADD32C,0.200000*%
%TD*%
G04 APERTURE END LIST*
D10*
%TO.P,J2,1,Pin_1*%
%TO.N,/D+*%
X155443000Y-75692000D03*
D11*
%TO.P,J2,2,Pin_2*%
%TO.N,/D-*%
X157983000Y-75692000D03*
%TD*%
D12*
%TO.P,J3,1,Pin_1*%
%TO.N,+BATT*%
X152998000Y-83042000D03*
D13*
%TO.P,J3,2,Pin_2*%
%TO.N,GND*%
X152998000Y-81042000D03*
%TD*%
D14*
%TO.P,C2,1*%
%TO.N,+BATT*%
X154191000Y-93218000D03*
%TO.P,C2,2*%
%TO.N,GND*%
X152641000Y-93218000D03*
%TD*%
D15*
%TO.P,R4,1*%
%TO.N,Net-(R4-Pad1)*%
X150368000Y-90487000D03*
%TO.P,R4,2*%
%TO.N,GND*%
X150368000Y-88837000D03*
%TD*%
D16*
%TO.P,C4,1*%
%TO.N,+9V*%
X153162000Y-113297000D03*
%TO.P,C4,2*%
%TO.N,Net-(C4-Pad2)*%
X153162000Y-111747000D03*
%TD*%
D17*
%TO.P,R3,1*%
%TO.N,+3.3V*%
X149289000Y-75692000D03*
%TO.P,R3,2*%
%TO.N,/D+*%
X150939000Y-75692000D03*
%TD*%
D14*
%TO.P,C3,1*%
%TO.N,+BATT*%
X153937000Y-106680000D03*
%TO.P,C3,2*%
%TO.N,GND*%
X152387000Y-106680000D03*
%TD*%
D16*
%TO.P,C5,1*%
%TO.N,+9V*%
X149606000Y-113297000D03*
%TO.P,C5,2*%
%TO.N,GND*%
X149606000Y-111747000D03*
%TD*%
D18*
%TO.P,L1,1,1*%
%TO.N,+BATT*%
X156312000Y-101600000D03*
%TO.P,L1,2,2*%
%TO.N,Net-(D2-Pad2)*%
X150012000Y-101600000D03*
%TD*%
D19*
%TO.P,D1,1,K*%
%TO.N,Net-(D1-Pad1)*%
X140462000Y-90652500D03*
%TO.P,D1,2,A*%
%TO.N,+5V*%
X140462000Y-92227500D03*
%TD*%
D17*
%TO.P,R2,1*%
%TO.N,Net-(J1-PadA5)*%
X147257000Y-81788000D03*
%TO.P,R2,2*%
%TO.N,GND*%
X148907000Y-81788000D03*
%TD*%
D20*
%TO.P,C1,1*%
%TO.N,+5V*%
X155956000Y-88887000D03*
%TO.P,C1,2*%
%TO.N,GND*%
X155956000Y-90437000D03*
%TD*%
D21*
%TO.P,SW1,*%
%TO.N,*%
X142113000Y-95171000D03*
X142113000Y-105171000D03*
D22*
%TO.P,SW1,1,A*%
%TO.N,Net-(SW1-Pad1)*%
X143383000Y-98171000D03*
%TO.P,SW1,2,B*%
%TO.N,+9V*%
X143383000Y-100171000D03*
%TO.P,SW1,3,C*%
%TO.N,unconnected-(SW1-Pad3)*%
X143383000Y-102171000D03*
%TO.P,SW1,4,A*%
%TO.N,unconnected-(SW1-Pad4)*%
X140883000Y-98171000D03*
%TO.P,SW1,5,B*%
%TO.N,GND*%
X140883000Y-100171000D03*
%TO.P,SW1,6,C*%
%TO.N,Net-(R8-Pad2)*%
X140883000Y-102171000D03*
%TD*%
D17*
%TO.P,R1,1*%
%TO.N,Net-(J1-PadB5)*%
X147257000Y-84836000D03*
%TO.P,R1,2*%
%TO.N,GND*%
X148907000Y-84836000D03*
%TD*%
D15*
%TO.P,R5,1*%
%TO.N,Net-(R5-Pad1)*%
X143510000Y-92265000D03*
%TO.P,R5,2*%
%TO.N,Net-(D1-Pad1)*%
X143510000Y-90615000D03*
%TD*%
D23*
%TO.P,J1,A1,GND*%
%TO.N,GND*%
X145249000Y-80083000D03*
%TO.P,J1,A4,VBUS*%
%TO.N,+5V*%
X145249000Y-80933000D03*
%TO.P,J1,A5,CC1*%
%TO.N,Net-(J1-PadA5)*%
X145249000Y-81783000D03*
%TO.P,J1,A6,D+*%
%TO.N,/D+*%
X145249000Y-82633000D03*
%TO.P,J1,A7,D-*%
%TO.N,/D-*%
X145249000Y-83483000D03*
%TO.P,J1,A8,SBU1*%
%TO.N,unconnected-(J1-PadA8)*%
X145249000Y-84333000D03*
%TO.P,J1,A9,VBUS*%
%TO.N,+5V*%
X145249000Y-85183000D03*
%TO.P,J1,A12,GND*%
%TO.N,GND*%
X145249000Y-86033000D03*
%TO.P,J1,B1,GND*%
X143899000Y-86033000D03*
%TO.P,J1,B4,VBUS*%
%TO.N,+5V*%
X143899000Y-85183000D03*
%TO.P,J1,B5,CC2*%
%TO.N,Net-(J1-PadB5)*%
X143899000Y-84333000D03*
%TO.P,J1,B6,D+*%
%TO.N,/D+*%
X143899000Y-83483000D03*
%TO.P,J1,B7,D-*%
%TO.N,/D-*%
X143899000Y-82633000D03*
%TO.P,J1,B8,SBU2*%
%TO.N,unconnected-(J1-PadB8)*%
X143899000Y-81783000D03*
%TO.P,J1,B9,VBUS*%
%TO.N,+5V*%
X143899000Y-80933000D03*
%TO.P,J1,B12,GND*%
%TO.N,GND*%
X143899000Y-80083000D03*
D24*
%TO.P,J1,S1,SHIELD*%
X144269000Y-87383000D03*
D25*
X140889000Y-78733000D03*
X140889000Y-87383000D03*
D24*
X144269000Y-78733000D03*
%TD*%
D26*
%TO.P,U1,1,STAT*%
%TO.N,Net-(R5-Pad1)*%
X152212000Y-91307500D03*
%TO.P,U1,2,VSS*%
%TO.N,GND*%
X153162000Y-91307500D03*
%TO.P,U1,3,VBAT*%
%TO.N,+BATT*%
X154112000Y-91307500D03*
%TO.P,U1,4,VDD*%
%TO.N,+5V*%
X154112000Y-89032500D03*
%TO.P,U1,5,PROG*%
%TO.N,Net-(R4-Pad1)*%
X152212000Y-89032500D03*
%TD*%
D15*
%TO.P,R6,1*%
%TO.N,+9V*%
X151384000Y-113347000D03*
%TO.P,R6,2*%
%TO.N,Net-(C4-Pad2)*%
X151384000Y-111697000D03*
%TD*%
D27*
%TO.P,D2,1,K*%
%TO.N,+9V*%
X149860000Y-109858000D03*
%TO.P,D2,2,A*%
%TO.N,Net-(D2-Pad2)*%
X149860000Y-107058000D03*
%TD*%
D28*
%TO.P,R8,1*%
%TO.N,+BATT*%
X157480000Y-108395000D03*
%TO.P,R8,2*%
%TO.N,Net-(R8-Pad2)*%
X157480000Y-110045000D03*
%TD*%
%TO.P,R7,1*%
%TO.N,Net-(C4-Pad2)*%
X154940000Y-111697000D03*
%TO.P,R7,2*%
%TO.N,GND*%
X154940000Y-113347000D03*
%TD*%
D29*
%TO.P,U2,1,SW*%
%TO.N,Net-(D2-Pad2)*%
X152024500Y-108270000D03*
%TO.P,U2,2,GND*%
%TO.N,GND*%
X152024500Y-109220000D03*
%TO.P,U2,3,FB*%
%TO.N,Net-(C4-Pad2)*%
X152024500Y-110170000D03*
%TO.P,U2,4,EN*%
%TO.N,Net-(R8-Pad2)*%
X154299500Y-110170000D03*
%TO.P,U2,5,VIN*%
%TO.N,+BATT*%
X154299500Y-108270000D03*
%TD*%
D10*
%TO.P,J6,1,Pin_1*%
%TO.N,unconnected-(J6-Pad1)*%
X143256000Y-75692000D03*
%TD*%
%TO.P,J4,1,Pin_1*%
%TO.N,Net-(SW1-Pad1)*%
X153670000Y-120396000D03*
D11*
%TO.P,J4,2,Pin_2*%
%TO.N,GND*%
X156210000Y-120396000D03*
%TD*%
D10*
%TO.P,J5,1,Pin_1*%
%TO.N,+3.3V*%
X143510000Y-108976000D03*
D11*
%TO.P,J5,2,Pin_2*%
%TO.N,GND*%
X143510000Y-111516000D03*
%TO.P,J5,3,Pin_3*%
%TO.N,unconnected-(J5-Pad3)*%
X143510000Y-114056000D03*
%TO.P,J5,4,Pin_4*%
%TO.N,unconnected-(J5-Pad4)*%
X143510000Y-116596000D03*
%TD*%
D30*
%TO.N,+5V*%
X141732000Y-92227500D03*
X155956000Y-87630000D03*
%TO.N,GND*%
X152400000Y-105410000D03*
X151384000Y-93218000D03*
X150368000Y-87630000D03*
X148336000Y-111760000D03*
X148907000Y-80518000D03*
X155956000Y-91694000D03*
X148907000Y-86106000D03*
X154940000Y-114554000D03*
%TO.N,+BATT*%
X155448000Y-93218000D03*
X154940000Y-101600000D03*
X157734000Y-101600000D03*
X156464000Y-99822000D03*
X153924000Y-105410000D03*
X156464000Y-103378000D03*
X155702000Y-108204000D03*
%TO.N,+9V*%
X149606000Y-114554000D03*
X153162000Y-114554000D03*
X148336000Y-109858000D03*
X151384000Y-114554000D03*
%TO.N,+3.3V*%
X149289000Y-76962000D03*
%TO.N,Net-(R8-Pad2)*%
X157480000Y-111252000D03*
%TD*%
D31*
%TO.N,+5V*%
X155956000Y-87630000D02*
X155956000Y-88887000D01*
X141732000Y-92227500D02*
X140462000Y-92227500D01*
X155956000Y-88887000D02*
X154257500Y-88887000D01*
X154257500Y-88887000D02*
X154112000Y-89032500D01*
%TO.N,GND*%
X153162000Y-108966000D02*
X153162000Y-108073249D01*
X149593000Y-111760000D02*
X149606000Y-111747000D01*
X152387000Y-107298249D02*
X152387000Y-106680000D01*
X150368000Y-87630000D02*
X150368000Y-88837000D01*
X153162000Y-92697000D02*
X152641000Y-93218000D01*
X152400000Y-105410000D02*
X152400000Y-106667000D01*
X154940000Y-114554000D02*
X154940000Y-113347000D01*
X148907000Y-86106000D02*
X148907000Y-84836000D01*
X153162000Y-108073249D02*
X152387000Y-107298249D01*
X148907000Y-80518000D02*
X148907000Y-81788000D01*
X152400000Y-106667000D02*
X152387000Y-106680000D01*
X152908000Y-109220000D02*
X153162000Y-108966000D01*
X148336000Y-111760000D02*
X149593000Y-111760000D01*
X155956000Y-91694000D02*
X155956000Y-90437000D01*
X152024500Y-109220000D02*
X152908000Y-109220000D01*
X153162000Y-91307500D02*
X153162000Y-92697000D01*
X151384000Y-93218000D02*
X152641000Y-93218000D01*
%TO.N,+BATT*%
X154112000Y-93139000D02*
X154191000Y-93218000D01*
X155448000Y-93218000D02*
X154191000Y-93218000D01*
X154112000Y-91307500D02*
X154112000Y-93139000D01*
%TO.N,+9V*%
X148336000Y-109858000D02*
X149860000Y-109858000D01*
X149606000Y-114554000D02*
X149606000Y-113297000D01*
X151384000Y-114554000D02*
X151384000Y-113347000D01*
X153162000Y-114554000D02*
X153162000Y-113297000D01*
%TO.N,Net-(J1-PadA5)*%
X145249000Y-81783000D02*
X147252000Y-81783000D01*
X147252000Y-81783000D02*
X147257000Y-81788000D01*
%TO.N,Net-(J1-PadB5)*%
X142494000Y-87630000D02*
X142494000Y-85039513D01*
X147257000Y-84836000D02*
X147257000Y-87185000D01*
X143256000Y-88392000D02*
X142494000Y-87630000D01*
X146050000Y-88392000D02*
X143256000Y-88392000D01*
X147257000Y-87185000D02*
X146050000Y-88392000D01*
X143200513Y-84333000D02*
X143899000Y-84333000D01*
X142494000Y-85039513D02*
X143200513Y-84333000D01*
%TO.N,+3.3V*%
X149289000Y-76962000D02*
X149289000Y-75692000D01*
%TO.N,Net-(R4-Pad1)*%
X151067000Y-90487000D02*
X151384000Y-90170000D01*
X152212000Y-89032500D02*
X151759500Y-89032500D01*
X150368000Y-90487000D02*
X151067000Y-90487000D01*
X151384000Y-90170000D02*
X151384000Y-89408000D01*
X151759500Y-89032500D02*
X151384000Y-89408000D01*
%TO.N,Net-(D1-Pad1)*%
X140499500Y-90615000D02*
X140462000Y-90652500D01*
X143510000Y-90615000D02*
X140499500Y-90615000D01*
%TO.N,Net-(R5-Pad1)*%
X143510000Y-92265000D02*
X150432000Y-92265000D01*
X151389500Y-91307500D02*
X152212000Y-91307500D01*
X150432000Y-92265000D02*
X151389500Y-91307500D01*
%TO.N,/D+*%
X146050000Y-82804000D02*
X149252446Y-82804000D01*
D32*
X150939000Y-75692000D02*
X155443000Y-75692000D01*
D31*
X155443000Y-77595603D02*
X155443000Y-75692000D01*
X154523603Y-78515000D02*
X155443000Y-77595603D01*
X152306800Y-78515000D02*
X154523603Y-78515000D01*
X145249000Y-82633000D02*
X145879000Y-82633000D01*
X149252446Y-82804000D02*
X150626000Y-81430446D01*
X150626000Y-81430446D02*
X150626000Y-80195800D01*
X145879000Y-82633000D02*
X146050000Y-82804000D01*
X150626000Y-80195800D02*
X152306800Y-78515000D01*
%TO.N,/D-*%
X154710000Y-78965000D02*
X157983000Y-75692000D01*
X143899000Y-82633000D02*
X144294405Y-82633000D01*
X151126000Y-80332200D02*
X152493200Y-78965000D01*
X145249000Y-83483000D02*
X145879000Y-83483000D01*
X145879000Y-83483000D02*
X146050000Y-83312000D01*
X146050000Y-83312000D02*
X149451554Y-83312000D01*
X152493200Y-78965000D02*
X154710000Y-78965000D01*
X151126000Y-81637554D02*
X151126000Y-80332200D01*
X145144405Y-83483000D02*
X145249000Y-83483000D01*
X144294405Y-82633000D02*
X145144405Y-83483000D01*
X149451554Y-83312000D02*
X151126000Y-81637554D01*
%TO.N,Net-(SW1-Pad1)*%
X151892000Y-120396000D02*
X153670000Y-120396000D01*
X147066000Y-101854000D02*
X147066000Y-115570000D01*
X143383000Y-98171000D02*
X147066000Y-101854000D01*
X147066000Y-115570000D02*
X151892000Y-120396000D01*
%TO.N,Net-(R8-Pad2)*%
X157480000Y-110045000D02*
X157480000Y-111252000D01*
X157355000Y-110170000D02*
X157480000Y-110045000D01*
X154299500Y-110170000D02*
X157355000Y-110170000D01*
%TD*%
%TA.AperFunction,Conductor*%
%TO.N,Net-(C4-Pad2)*%
G36*
X151350579Y-109741733D02*
G01*
X151362883Y-109748002D01*
X151385445Y-109759498D01*
X151480166Y-109774500D01*
X152568834Y-109774500D01*
X152663555Y-109759498D01*
X152686117Y-109748002D01*
X152698421Y-109741733D01*
X152755624Y-109728000D01*
X152782000Y-109728000D01*
X152850121Y-109748002D01*
X152896614Y-109801658D01*
X152908000Y-109854000D01*
X152908000Y-110998000D01*
X155576000Y-110998000D01*
X155644121Y-111018002D01*
X155690614Y-111071658D01*
X155702000Y-111124000D01*
X155702000Y-112396000D01*
X155681998Y-112464121D01*
X155628342Y-112510614D01*
X155576000Y-112522000D01*
X150748000Y-112522000D01*
X150679879Y-112501998D01*
X150633386Y-112448342D01*
X150622000Y-112396000D01*
X150622000Y-110587029D01*
X150639411Y-110529632D01*
X150638090Y-110529085D01*
X150642840Y-110517619D01*
X150649734Y-110507301D01*
X150664500Y-110433067D01*
X150664499Y-109853998D01*
X150684501Y-109785879D01*
X150738157Y-109739386D01*
X150790499Y-109728000D01*
X151293376Y-109728000D01*
X151350579Y-109741733D01*
G37*
%TD.AperFunction*%
%TD*%
%TA.AperFunction,Conductor*%
%TO.N,+BATT*%
G36*
X159707621Y-97302002D02*
G01*
X159754114Y-97355658D01*
X159765500Y-97408000D01*
X159765500Y-109094000D01*
X159745498Y-109162121D01*
X159691842Y-109208614D01*
X159639500Y-109220000D01*
X153652841Y-109220000D01*
X153584720Y-109199998D01*
X153538227Y-109146342D01*
X153528123Y-109076068D01*
X153533959Y-109052250D01*
X153538391Y-109039630D01*
X153538391Y-109039629D01*
X153541018Y-109032149D01*
X153541500Y-109026584D01*
X153541500Y-109023876D01*
X153541614Y-109021242D01*
X153541643Y-109021144D01*
X153541807Y-109021151D01*
X153541851Y-109020447D01*
X153543713Y-109014222D01*
X153541597Y-108960365D01*
X153541500Y-108955418D01*
X153541500Y-108127174D01*
X153544050Y-108103216D01*
X153544128Y-108101557D01*
X153546321Y-108091373D01*
X153545097Y-108081031D01*
X153545097Y-108081028D01*
X153542374Y-108058028D01*
X153542024Y-108052097D01*
X153541928Y-108052105D01*
X153541500Y-108046929D01*
X153541500Y-108041725D01*
X153538327Y-108022661D01*
X153537496Y-108016815D01*
X153532694Y-107976250D01*
X153531470Y-107965908D01*
X153527507Y-107957656D01*
X153526004Y-107948623D01*
X153501656Y-107903497D01*
X153498982Y-107898251D01*
X153476781Y-107852018D01*
X153473187Y-107847742D01*
X153471247Y-107845802D01*
X153469493Y-107843890D01*
X153469445Y-107843801D01*
X153469568Y-107843689D01*
X153469095Y-107843153D01*
X153466010Y-107837435D01*
X153426413Y-107800832D01*
X153422848Y-107797403D01*
X153198905Y-107573460D01*
X153164879Y-107511148D01*
X153162000Y-107484365D01*
X153162000Y-97408000D01*
X153182002Y-97339879D01*
X153235658Y-97293386D01*
X153288000Y-97282000D01*
X159639500Y-97282000D01*
X159707621Y-97302002D01*
G37*
%TD.AperFunction*%
%TD*%
%TA.AperFunction,Conductor*%
%TO.N,Net-(D2-Pad2)*%
G36*
X151580121Y-97302002D02*
G01*
X151626614Y-97355658D01*
X151638000Y-97408000D01*
X151638000Y-107696000D01*
X152195867Y-107696000D01*
X152263988Y-107716002D01*
X152284962Y-107732905D01*
X152745595Y-108193538D01*
X152779621Y-108255850D01*
X152782500Y-108282633D01*
X152782500Y-108551814D01*
X152762498Y-108619935D01*
X152708842Y-108666428D01*
X152636790Y-108676263D01*
X152568834Y-108665500D01*
X151480166Y-108665500D01*
X151385445Y-108680502D01*
X151376612Y-108685003D01*
X151376611Y-108685003D01*
X151350579Y-108698267D01*
X151293376Y-108712000D01*
X148716000Y-108712000D01*
X148647879Y-108691998D01*
X148601386Y-108638342D01*
X148590000Y-108586000D01*
X148590000Y-97408000D01*
X148610002Y-97339879D01*
X148663658Y-97293386D01*
X148716000Y-97282000D01*
X151512000Y-97282000D01*
X151580121Y-97302002D01*
G37*
%TD.AperFunction*%
%TD*%
M02*
