%TF.GenerationSoftware,KiCad,Pcbnew,(6.0.7)*%
%TF.CreationDate,2022-10-01T16:55:56-07:00*%
%TF.ProjectId,dso150_mod,64736f31-3530-45f6-9d6f-642e6b696361,1.0*%
%TF.SameCoordinates,Original*%
%TF.FileFunction,Legend,Bot*%
%TF.FilePolarity,Positive*%
%FSLAX46Y46*%
G04 Gerber Fmt 4.6, Leading zero omitted, Abs format (unit mm)*
G04 Created by KiCad (PCBNEW (6.0.7)) date 2022-10-01 16:55:56*
%MOMM*%
%LPD*%
G01*
G04 APERTURE LIST*
%ADD10C,0.150000*%
%ADD11C,0.120000*%
G04 APERTURE END LIST*
D10*
X149653047Y-121118380D02*
X149653047Y-121832666D01*
X149700666Y-121975523D01*
X149795904Y-122070761D01*
X149938761Y-122118380D01*
X150034000Y-122118380D01*
X148700666Y-122118380D02*
X149176857Y-122118380D01*
X149176857Y-121118380D01*
X147795904Y-122023142D02*
X147843523Y-122070761D01*
X147986380Y-122118380D01*
X148081619Y-122118380D01*
X148224476Y-122070761D01*
X148319714Y-121975523D01*
X148367333Y-121880285D01*
X148414952Y-121689809D01*
X148414952Y-121546952D01*
X148367333Y-121356476D01*
X148319714Y-121261238D01*
X148224476Y-121166000D01*
X148081619Y-121118380D01*
X147986380Y-121118380D01*
X147843523Y-121166000D01*
X147795904Y-121213619D01*
X147081619Y-121118380D02*
X147081619Y-121832666D01*
X147129238Y-121975523D01*
X147224476Y-122070761D01*
X147367333Y-122118380D01*
X147462571Y-122118380D01*
X146129238Y-122118380D02*
X146605428Y-122118380D01*
X146605428Y-121118380D01*
X145224476Y-122023142D02*
X145272095Y-122070761D01*
X145414952Y-122118380D01*
X145510190Y-122118380D01*
X145653047Y-122070761D01*
X145748285Y-121975523D01*
X145795904Y-121880285D01*
X145843523Y-121689809D01*
X145843523Y-121546952D01*
X145795904Y-121356476D01*
X145748285Y-121261238D01*
X145653047Y-121166000D01*
X145510190Y-121118380D01*
X145414952Y-121118380D01*
X145272095Y-121166000D01*
X145224476Y-121213619D01*
X144510190Y-121118380D02*
X144510190Y-121832666D01*
X144557809Y-121975523D01*
X144653047Y-122070761D01*
X144795904Y-122118380D01*
X144891142Y-122118380D01*
X143557809Y-122118380D02*
X144034000Y-122118380D01*
X144034000Y-121118380D01*
X142653047Y-122023142D02*
X142700666Y-122070761D01*
X142843523Y-122118380D01*
X142938761Y-122118380D01*
X143081619Y-122070761D01*
X143176857Y-121975523D01*
X143224476Y-121880285D01*
X143272095Y-121689809D01*
X143272095Y-121546952D01*
X143224476Y-121356476D01*
X143176857Y-121261238D01*
X143081619Y-121166000D01*
X142938761Y-121118380D01*
X142843523Y-121118380D01*
X142700666Y-121166000D01*
X142653047Y-121213619D01*
X141938761Y-121118380D02*
X141938761Y-121832666D01*
X141986380Y-121975523D01*
X142081619Y-122070761D01*
X142224476Y-122118380D01*
X142319714Y-122118380D01*
X140986380Y-122118380D02*
X141462571Y-122118380D01*
X141462571Y-121118380D01*
X140081619Y-122023142D02*
X140129238Y-122070761D01*
X140272095Y-122118380D01*
X140367333Y-122118380D01*
X140510190Y-122070761D01*
X140605428Y-121975523D01*
X140653047Y-121880285D01*
X140700666Y-121689809D01*
X140700666Y-121546952D01*
X140653047Y-121356476D01*
X140605428Y-121261238D01*
X140510190Y-121166000D01*
X140367333Y-121118380D01*
X140272095Y-121118380D01*
X140129238Y-121166000D01*
X140081619Y-121213619D01*
%TO.C,J2*%
X152360380Y-75358666D02*
X153074666Y-75358666D01*
X153217523Y-75311047D01*
X153312761Y-75215809D01*
X153360380Y-75072952D01*
X153360380Y-74977714D01*
X152455619Y-75787238D02*
X152408000Y-75834857D01*
X152360380Y-75930095D01*
X152360380Y-76168190D01*
X152408000Y-76263428D01*
X152455619Y-76311047D01*
X152550857Y-76358666D01*
X152646095Y-76358666D01*
X152788952Y-76311047D01*
X153360380Y-75739619D01*
X153360380Y-76358666D01*
%TO.C,J3*%
X154646380Y-81708666D02*
X155360666Y-81708666D01*
X155503523Y-81661047D01*
X155598761Y-81565809D01*
X155646380Y-81422952D01*
X155646380Y-81327714D01*
X154646380Y-82089619D02*
X154646380Y-82708666D01*
X155027333Y-82375333D01*
X155027333Y-82518190D01*
X155074952Y-82613428D01*
X155122571Y-82661047D01*
X155217809Y-82708666D01*
X155455904Y-82708666D01*
X155551142Y-82661047D01*
X155598761Y-82613428D01*
X155646380Y-82518190D01*
X155646380Y-82232476D01*
X155598761Y-82137238D01*
X155551142Y-82089619D01*
%TO.C,J1*%
X141946380Y-82724666D02*
X142660666Y-82724666D01*
X142803523Y-82677047D01*
X142898761Y-82581809D01*
X142946380Y-82438952D01*
X142946380Y-82343714D01*
X142946380Y-83724666D02*
X142946380Y-83153238D01*
X142946380Y-83438952D02*
X141946380Y-83438952D01*
X142089238Y-83343714D01*
X142184476Y-83248476D01*
X142232095Y-83153238D01*
%TO.C,J6*%
X145248380Y-75358666D02*
X145962666Y-75358666D01*
X146105523Y-75311047D01*
X146200761Y-75215809D01*
X146248380Y-75072952D01*
X146248380Y-74977714D01*
X145248380Y-76263428D02*
X145248380Y-76072952D01*
X145296000Y-75977714D01*
X145343619Y-75930095D01*
X145486476Y-75834857D01*
X145676952Y-75787238D01*
X146057904Y-75787238D01*
X146153142Y-75834857D01*
X146200761Y-75882476D01*
X146248380Y-75977714D01*
X146248380Y-76168190D01*
X146200761Y-76263428D01*
X146153142Y-76311047D01*
X146057904Y-76358666D01*
X145819809Y-76358666D01*
X145724571Y-76311047D01*
X145676952Y-76263428D01*
X145629333Y-76168190D01*
X145629333Y-75977714D01*
X145676952Y-75882476D01*
X145724571Y-75834857D01*
X145819809Y-75787238D01*
%TO.C,J4*%
X154392380Y-117268666D02*
X155106666Y-117268666D01*
X155249523Y-117221047D01*
X155344761Y-117125809D01*
X155392380Y-116982952D01*
X155392380Y-116887714D01*
X154725714Y-118173428D02*
X155392380Y-118173428D01*
X154344761Y-117935333D02*
X155059047Y-117697238D01*
X155059047Y-118316285D01*
%TO.C,J5*%
X145502380Y-112442666D02*
X146216666Y-112442666D01*
X146359523Y-112395047D01*
X146454761Y-112299809D01*
X146502380Y-112156952D01*
X146502380Y-112061714D01*
X145502380Y-113395047D02*
X145502380Y-112918857D01*
X145978571Y-112871238D01*
X145930952Y-112918857D01*
X145883333Y-113014095D01*
X145883333Y-113252190D01*
X145930952Y-113347428D01*
X145978571Y-113395047D01*
X146073809Y-113442666D01*
X146311904Y-113442666D01*
X146407142Y-113395047D01*
X146454761Y-113347428D01*
X146502380Y-113252190D01*
X146502380Y-113014095D01*
X146454761Y-112918857D01*
X146407142Y-112871238D01*
D11*
%TO.C,J6*%
X144586000Y-76962000D02*
X141926000Y-76962000D01*
X144586000Y-77022000D02*
X141926000Y-77022000D01*
X141926000Y-76962000D02*
X141926000Y-77022000D01*
X144586000Y-75692000D02*
X144586000Y-74362000D01*
X144586000Y-76962000D02*
X144586000Y-77022000D01*
X144586000Y-74362000D02*
X143256000Y-74362000D01*
%TO.C,J4*%
X153670000Y-119066000D02*
X152340000Y-119066000D01*
X154940000Y-121726000D02*
X157540000Y-121726000D01*
X154940000Y-119066000D02*
X157540000Y-119066000D01*
X152340000Y-119066000D02*
X152340000Y-120396000D01*
X154940000Y-119066000D02*
X154940000Y-121726000D01*
X157540000Y-119066000D02*
X157540000Y-121726000D01*
%TO.C,J5*%
X144840000Y-117926000D02*
X142180000Y-117926000D01*
X144840000Y-110246000D02*
X142180000Y-110246000D01*
X144840000Y-110246000D02*
X144840000Y-117926000D01*
X144840000Y-107646000D02*
X143510000Y-107646000D01*
X142180000Y-110246000D02*
X142180000Y-117926000D01*
X144840000Y-108976000D02*
X144840000Y-107646000D01*
%TD*%
M02*
