%TF.GenerationSoftware,KiCad,Pcbnew,(6.0.7)*%
%TF.CreationDate,2022-10-01T16:55:56-07:00*%
%TF.ProjectId,dso150_mod,64736f31-3530-45f6-9d6f-642e6b696361,1.0*%
%TF.SameCoordinates,Original*%
%TF.FileFunction,Copper,L3,Inr*%
%TF.FilePolarity,Positive*%
%FSLAX46Y46*%
G04 Gerber Fmt 4.6, Leading zero omitted, Abs format (unit mm)*
G04 Created by KiCad (PCBNEW (6.0.7)) date 2022-10-01 16:55:56*
%MOMM*%
%LPD*%
G01*
G04 APERTURE LIST*
G04 Aperture macros list*
%AMRoundRect*
0 Rectangle with rounded corners*
0 $1 Rounding radius*
0 $2 $3 $4 $5 $6 $7 $8 $9 X,Y pos of 4 corners*
0 Add a 4 corners polygon primitive as box body*
4,1,4,$2,$3,$4,$5,$6,$7,$8,$9,$2,$3,0*
0 Add four circle primitives for the rounded corners*
1,1,$1+$1,$2,$3*
1,1,$1+$1,$4,$5*
1,1,$1+$1,$6,$7*
1,1,$1+$1,$8,$9*
0 Add four rect primitives between the rounded corners*
20,1,$1+$1,$2,$3,$4,$5,0*
20,1,$1+$1,$4,$5,$6,$7,0*
20,1,$1+$1,$6,$7,$8,$9,0*
20,1,$1+$1,$8,$9,$2,$3,0*%
G04 Aperture macros list end*
%TA.AperFunction,ComponentPad*%
%ADD10R,1.700000X1.700000*%
%TD*%
%TA.AperFunction,ComponentPad*%
%ADD11O,1.700000X1.700000*%
%TD*%
%TA.AperFunction,ComponentPad*%
%ADD12RoundRect,0.250000X0.625000X-0.350000X0.625000X0.350000X-0.625000X0.350000X-0.625000X-0.350000X0*%
%TD*%
%TA.AperFunction,ComponentPad*%
%ADD13O,1.750000X1.200000*%
%TD*%
%TA.AperFunction,ComponentPad*%
%ADD14C,2.500000*%
%TD*%
%TA.AperFunction,ComponentPad*%
%ADD15C,1.600000*%
%TD*%
%TA.AperFunction,ComponentPad*%
%ADD16C,0.700000*%
%TD*%
%TA.AperFunction,ComponentPad*%
%ADD17O,2.400000X0.900000*%
%TD*%
%TA.AperFunction,ComponentPad*%
%ADD18O,1.700000X0.900000*%
%TD*%
%TA.AperFunction,ViaPad*%
%ADD19C,0.800000*%
%TD*%
G04 APERTURE END LIST*
D10*
%TO.N,/D+*%
%TO.C,J2*%
X155443000Y-75692000D03*
D11*
%TO.N,/D-*%
X157983000Y-75692000D03*
%TD*%
D12*
%TO.N,+BATT*%
%TO.C,J3*%
X152998000Y-83042000D03*
D13*
%TO.N,GND*%
X152998000Y-81042000D03*
%TD*%
D14*
%TO.N,*%
%TO.C,SW1*%
X142113000Y-95171000D03*
X142113000Y-105171000D03*
D15*
%TO.N,Net-(SW1-Pad1)*%
X143383000Y-98171000D03*
%TO.N,+9V*%
X143383000Y-100171000D03*
%TO.N,unconnected-(SW1-Pad3)*%
X143383000Y-102171000D03*
%TO.N,unconnected-(SW1-Pad4)*%
X140883000Y-98171000D03*
%TO.N,GND*%
X140883000Y-100171000D03*
%TO.N,Net-(R8-Pad2)*%
X140883000Y-102171000D03*
%TD*%
D16*
%TO.N,GND*%
%TO.C,J1*%
X145249000Y-80083000D03*
%TO.N,+5V*%
X145249000Y-80933000D03*
%TO.N,Net-(J1-PadA5)*%
X145249000Y-81783000D03*
%TO.N,/D+*%
X145249000Y-82633000D03*
%TO.N,/D-*%
X145249000Y-83483000D03*
%TO.N,unconnected-(J1-PadA8)*%
X145249000Y-84333000D03*
%TO.N,+5V*%
X145249000Y-85183000D03*
%TO.N,GND*%
X145249000Y-86033000D03*
X143899000Y-86033000D03*
%TO.N,+5V*%
X143899000Y-85183000D03*
%TO.N,Net-(J1-PadB5)*%
X143899000Y-84333000D03*
%TO.N,/D+*%
X143899000Y-83483000D03*
%TO.N,/D-*%
X143899000Y-82633000D03*
%TO.N,unconnected-(J1-PadB8)*%
X143899000Y-81783000D03*
%TO.N,+5V*%
X143899000Y-80933000D03*
%TO.N,GND*%
X143899000Y-80083000D03*
D17*
X144269000Y-87383000D03*
D18*
X140889000Y-78733000D03*
X140889000Y-87383000D03*
D17*
X144269000Y-78733000D03*
%TD*%
D10*
%TO.N,unconnected-(J6-Pad1)*%
%TO.C,J6*%
X143256000Y-75692000D03*
%TD*%
%TO.N,Net-(SW1-Pad1)*%
%TO.C,J4*%
X153670000Y-120396000D03*
D11*
%TO.N,GND*%
X156210000Y-120396000D03*
%TD*%
D10*
%TO.N,+3.3V*%
%TO.C,J5*%
X143510000Y-108976000D03*
D11*
%TO.N,GND*%
X143510000Y-111516000D03*
%TO.N,unconnected-(J5-Pad3)*%
X143510000Y-114056000D03*
%TO.N,unconnected-(J5-Pad4)*%
X143510000Y-116596000D03*
%TD*%
D19*
%TO.N,+5V*%
X141732000Y-92227500D03*
X155956000Y-87630000D03*
%TO.N,GND*%
X152400000Y-105410000D03*
X151384000Y-93218000D03*
X150368000Y-87630000D03*
X148336000Y-111760000D03*
X148907000Y-80518000D03*
X155956000Y-91694000D03*
X148907000Y-86106000D03*
X154940000Y-114554000D03*
%TO.N,+BATT*%
X155448000Y-93218000D03*
X154940000Y-101600000D03*
X157734000Y-101600000D03*
X156464000Y-99822000D03*
X153924000Y-105410000D03*
X156464000Y-103378000D03*
X155702000Y-108204000D03*
%TO.N,+9V*%
X149606000Y-114554000D03*
X153162000Y-114554000D03*
X148336000Y-109858000D03*
X151384000Y-114554000D03*
%TO.N,+3.3V*%
X149289000Y-76962000D03*
%TO.N,Net-(R8-Pad2)*%
X157480000Y-111252000D03*
%TD*%
%TA.AperFunction,Conductor*%
%TO.N,+BATT*%
G36*
X158007103Y-73440921D02*
G01*
X158020000Y-73443486D01*
X158032172Y-73441065D01*
X158044579Y-73441065D01*
X158044579Y-73441705D01*
X158055358Y-73441029D01*
X158239248Y-73454181D01*
X158259420Y-73455624D01*
X158277214Y-73458182D01*
X158502960Y-73507290D01*
X158520209Y-73512355D01*
X158575356Y-73532923D01*
X158736670Y-73593090D01*
X158753017Y-73600556D01*
X158955782Y-73711275D01*
X158970905Y-73720994D01*
X159155848Y-73859441D01*
X159169434Y-73871214D01*
X159332786Y-74034566D01*
X159344559Y-74048152D01*
X159483006Y-74233095D01*
X159492725Y-74248218D01*
X159603444Y-74450983D01*
X159610910Y-74467330D01*
X159655241Y-74586187D01*
X159691645Y-74683791D01*
X159696710Y-74701040D01*
X159745818Y-74926786D01*
X159748376Y-74944580D01*
X159760752Y-75117609D01*
X159762971Y-75148639D01*
X159762295Y-75159421D01*
X159762935Y-75159421D01*
X159762935Y-75171828D01*
X159760514Y-75184000D01*
X159762935Y-75196170D01*
X159763079Y-75196894D01*
X159765500Y-75221476D01*
X159765500Y-109094000D01*
X159745498Y-109162121D01*
X159691842Y-109208614D01*
X159639500Y-109220000D01*
X153288000Y-109220000D01*
X153219879Y-109199998D01*
X153173386Y-109146342D01*
X153162000Y-109094000D01*
X153162000Y-91687096D01*
X155296729Y-91687096D01*
X155314113Y-91844553D01*
X155368553Y-91993319D01*
X155456908Y-92124805D01*
X155462527Y-92129918D01*
X155462528Y-92129919D01*
X155473903Y-92140269D01*
X155574076Y-92231419D01*
X155713293Y-92307008D01*
X155866522Y-92347207D01*
X155950477Y-92348526D01*
X156017319Y-92349576D01*
X156017322Y-92349576D01*
X156024916Y-92349695D01*
X156179332Y-92314329D01*
X156249742Y-92278917D01*
X156314072Y-92246563D01*
X156314075Y-92246561D01*
X156320855Y-92243151D01*
X156326626Y-92238222D01*
X156326629Y-92238220D01*
X156435536Y-92145204D01*
X156435536Y-92145203D01*
X156441314Y-92140269D01*
X156533755Y-92011624D01*
X156592842Y-91864641D01*
X156615162Y-91707807D01*
X156615307Y-91694000D01*
X156596276Y-91536733D01*
X156540280Y-91388546D01*
X156450553Y-91257992D01*
X156332275Y-91152611D01*
X156324889Y-91148700D01*
X156198988Y-91082039D01*
X156198989Y-91082039D01*
X156192274Y-91078484D01*
X156038633Y-91039892D01*
X156031034Y-91039852D01*
X156031033Y-91039852D01*
X155965181Y-91039507D01*
X155880221Y-91039062D01*
X155872841Y-91040834D01*
X155872839Y-91040834D01*
X155733563Y-91074271D01*
X155733560Y-91074272D01*
X155726184Y-91076043D01*
X155585414Y-91148700D01*
X155466039Y-91252838D01*
X155374950Y-91382444D01*
X155317406Y-91530037D01*
X155296729Y-91687096D01*
X153162000Y-91687096D01*
X153162000Y-90550000D01*
X153182002Y-90481879D01*
X153235658Y-90435386D01*
X153288000Y-90424000D01*
X157734000Y-90424000D01*
X157734000Y-85852000D01*
X150748000Y-85852000D01*
X150679879Y-85831998D01*
X150633386Y-85778342D01*
X150622000Y-85726000D01*
X150622000Y-80994019D01*
X151864801Y-80994019D01*
X151874518Y-81179424D01*
X151876328Y-81185996D01*
X151876329Y-81186001D01*
X151902079Y-81279484D01*
X151923821Y-81358417D01*
X152010410Y-81522648D01*
X152130245Y-81664454D01*
X152135668Y-81668601D01*
X152135670Y-81668602D01*
X152272315Y-81773075D01*
X152272319Y-81773077D01*
X152277736Y-81777219D01*
X152283916Y-81780101D01*
X152283918Y-81780102D01*
X152439823Y-81852802D01*
X152439826Y-81852803D01*
X152446000Y-81855682D01*
X152452648Y-81857168D01*
X152452651Y-81857169D01*
X152551711Y-81879311D01*
X152627188Y-81896182D01*
X152632876Y-81896500D01*
X153319385Y-81896500D01*
X153457573Y-81881488D01*
X153578210Y-81840889D01*
X153627064Y-81824448D01*
X153627066Y-81824447D01*
X153633535Y-81822270D01*
X153792677Y-81726649D01*
X153797634Y-81721961D01*
X153797637Y-81721959D01*
X153922614Y-81603773D01*
X153922616Y-81603771D01*
X153927572Y-81599084D01*
X154031928Y-81445529D01*
X154064355Y-81364456D01*
X154098342Y-81279484D01*
X154098343Y-81279479D01*
X154100876Y-81273147D01*
X154101990Y-81266420D01*
X154101991Y-81266415D01*
X154130084Y-81096718D01*
X154130084Y-81096715D01*
X154131199Y-81089981D01*
X154121482Y-80904576D01*
X154119672Y-80898004D01*
X154119671Y-80897999D01*
X154073992Y-80732165D01*
X154072179Y-80725583D01*
X153985590Y-80561352D01*
X153865755Y-80419546D01*
X153860330Y-80415398D01*
X153723685Y-80310925D01*
X153723681Y-80310923D01*
X153718264Y-80306781D01*
X153712084Y-80303899D01*
X153712082Y-80303898D01*
X153556177Y-80231198D01*
X153556174Y-80231197D01*
X153550000Y-80228318D01*
X153543352Y-80226832D01*
X153543349Y-80226831D01*
X153373849Y-80188944D01*
X153373850Y-80188944D01*
X153368812Y-80187818D01*
X153363124Y-80187500D01*
X152676615Y-80187500D01*
X152538427Y-80202512D01*
X152453189Y-80231198D01*
X152368936Y-80259552D01*
X152368934Y-80259553D01*
X152362465Y-80261730D01*
X152203323Y-80357351D01*
X152198366Y-80362039D01*
X152198363Y-80362041D01*
X152073386Y-80480227D01*
X152068428Y-80484916D01*
X151964072Y-80638471D01*
X151961539Y-80644805D01*
X151961537Y-80644808D01*
X151897658Y-80804516D01*
X151897657Y-80804521D01*
X151895124Y-80810853D01*
X151894010Y-80817580D01*
X151894009Y-80817585D01*
X151880697Y-80897999D01*
X151864801Y-80994019D01*
X150622000Y-80994019D01*
X150622000Y-74816933D01*
X154338500Y-74816933D01*
X154338501Y-76567066D01*
X154353266Y-76641301D01*
X154360161Y-76651620D01*
X154360162Y-76651622D01*
X154400516Y-76712015D01*
X154409516Y-76725484D01*
X154493699Y-76781734D01*
X154567933Y-76796500D01*
X155442858Y-76796500D01*
X156318066Y-76796499D01*
X156353818Y-76789388D01*
X156380126Y-76784156D01*
X156380128Y-76784155D01*
X156392301Y-76781734D01*
X156402621Y-76774839D01*
X156402622Y-76774838D01*
X156466168Y-76732377D01*
X156476484Y-76725484D01*
X156532734Y-76641301D01*
X156547500Y-76567067D01*
X156547499Y-75662964D01*
X156874148Y-75662964D01*
X156887424Y-75865522D01*
X156888845Y-75871118D01*
X156888846Y-75871123D01*
X156909119Y-75950945D01*
X156937392Y-76062269D01*
X156939809Y-76067512D01*
X156977010Y-76148208D01*
X157022377Y-76246616D01*
X157139533Y-76412389D01*
X157284938Y-76554035D01*
X157453720Y-76666812D01*
X157459023Y-76669090D01*
X157459026Y-76669092D01*
X157590283Y-76725484D01*
X157640228Y-76746942D01*
X157713244Y-76763464D01*
X157832579Y-76790467D01*
X157832584Y-76790468D01*
X157838216Y-76791742D01*
X157843987Y-76791969D01*
X157843989Y-76791969D01*
X157903756Y-76794317D01*
X158041053Y-76799712D01*
X158148348Y-76784155D01*
X158236231Y-76771413D01*
X158236236Y-76771412D01*
X158241945Y-76770584D01*
X158247409Y-76768729D01*
X158247414Y-76768728D01*
X158428693Y-76707192D01*
X158428698Y-76707190D01*
X158434165Y-76705334D01*
X158611276Y-76606147D01*
X158650969Y-76573135D01*
X158762913Y-76480031D01*
X158767345Y-76476345D01*
X158897147Y-76320276D01*
X158996334Y-76143165D01*
X158998190Y-76137698D01*
X158998192Y-76137693D01*
X159059728Y-75956414D01*
X159059729Y-75956409D01*
X159061584Y-75950945D01*
X159062412Y-75945236D01*
X159062413Y-75945231D01*
X159090179Y-75753727D01*
X159090712Y-75750053D01*
X159092232Y-75692000D01*
X159073658Y-75489859D01*
X159072090Y-75484299D01*
X159020125Y-75300046D01*
X159020124Y-75300044D01*
X159018557Y-75294487D01*
X159007978Y-75273033D01*
X158931331Y-75117609D01*
X158928776Y-75112428D01*
X158807320Y-74949779D01*
X158658258Y-74811987D01*
X158653375Y-74808906D01*
X158653371Y-74808903D01*
X158491464Y-74706748D01*
X158486581Y-74703667D01*
X158298039Y-74628446D01*
X158292379Y-74627320D01*
X158292375Y-74627319D01*
X158104613Y-74589971D01*
X158104610Y-74589971D01*
X158098946Y-74588844D01*
X158093171Y-74588768D01*
X158093167Y-74588768D01*
X157991793Y-74587441D01*
X157895971Y-74586187D01*
X157890274Y-74587166D01*
X157890273Y-74587166D01*
X157802397Y-74602266D01*
X157695910Y-74620564D01*
X157505463Y-74690824D01*
X157331010Y-74794612D01*
X157326670Y-74798418D01*
X157326666Y-74798421D01*
X157197437Y-74911753D01*
X157178392Y-74928455D01*
X157052720Y-75087869D01*
X157050031Y-75092980D01*
X157050029Y-75092983D01*
X157037073Y-75117609D01*
X156958203Y-75267515D01*
X156898007Y-75461378D01*
X156874148Y-75662964D01*
X156547499Y-75662964D01*
X156547499Y-74816934D01*
X156532734Y-74742699D01*
X156506654Y-74703667D01*
X156483377Y-74668832D01*
X156476484Y-74658516D01*
X156392301Y-74602266D01*
X156318067Y-74587500D01*
X155443142Y-74587500D01*
X154567934Y-74587501D01*
X154532182Y-74594612D01*
X154505874Y-74599844D01*
X154505872Y-74599845D01*
X154493699Y-74602266D01*
X154483379Y-74609161D01*
X154483378Y-74609162D01*
X154432023Y-74643477D01*
X154409516Y-74658516D01*
X154353266Y-74742699D01*
X154338500Y-74816933D01*
X150622000Y-74816933D01*
X150622000Y-73564500D01*
X150642002Y-73496379D01*
X150695658Y-73449886D01*
X150748000Y-73438500D01*
X157982524Y-73438500D01*
X158007103Y-73440921D01*
G37*
%TD.AperFunction*%
%TD*%
%TA.AperFunction,Conductor*%
%TO.N,+5V*%
G36*
X150056121Y-73458502D02*
G01*
X150102614Y-73512158D01*
X150114000Y-73564500D01*
X150114000Y-76605990D01*
X150093998Y-76674111D01*
X150040342Y-76720604D01*
X149970068Y-76730708D01*
X149905488Y-76701214D01*
X149876339Y-76664366D01*
X149875964Y-76663648D01*
X149873280Y-76656546D01*
X149815955Y-76573137D01*
X149787855Y-76532251D01*
X149787854Y-76532249D01*
X149783553Y-76525992D01*
X149665275Y-76420611D01*
X149657889Y-76416700D01*
X149531988Y-76350039D01*
X149531989Y-76350039D01*
X149525274Y-76346484D01*
X149371633Y-76307892D01*
X149364034Y-76307852D01*
X149364033Y-76307852D01*
X149298181Y-76307507D01*
X149213221Y-76307062D01*
X149205841Y-76308834D01*
X149205839Y-76308834D01*
X149066563Y-76342271D01*
X149066560Y-76342272D01*
X149059184Y-76344043D01*
X148918414Y-76416700D01*
X148799039Y-76520838D01*
X148707950Y-76650444D01*
X148698723Y-76674111D01*
X148659451Y-76774839D01*
X148650406Y-76798037D01*
X148629729Y-76955096D01*
X148647113Y-77112553D01*
X148649723Y-77119684D01*
X148649723Y-77119686D01*
X148683904Y-77213089D01*
X148701553Y-77261319D01*
X148789908Y-77392805D01*
X148795527Y-77397918D01*
X148795528Y-77397919D01*
X148806903Y-77408269D01*
X148907076Y-77499419D01*
X149046293Y-77575008D01*
X149199522Y-77615207D01*
X149283477Y-77616526D01*
X149350319Y-77617576D01*
X149350322Y-77617576D01*
X149357916Y-77617695D01*
X149512332Y-77582329D01*
X149582742Y-77546917D01*
X149647072Y-77514563D01*
X149647075Y-77514561D01*
X149653855Y-77511151D01*
X149659626Y-77506222D01*
X149659629Y-77506220D01*
X149768536Y-77413204D01*
X149768536Y-77413203D01*
X149774314Y-77408269D01*
X149866755Y-77279624D01*
X149871093Y-77268833D01*
X149872916Y-77266521D01*
X149873248Y-77265918D01*
X149873349Y-77265973D01*
X149915060Y-77213089D01*
X149982185Y-77189964D01*
X150051156Y-77206801D01*
X150100076Y-77258254D01*
X150114000Y-77315830D01*
X150114000Y-86360000D01*
X157100000Y-86360000D01*
X157168121Y-86380002D01*
X157214614Y-86433658D01*
X157226000Y-86486000D01*
X157226000Y-89790000D01*
X157205998Y-89858121D01*
X157152342Y-89904614D01*
X157100000Y-89916000D01*
X152654000Y-89916000D01*
X152654000Y-92838000D01*
X152633998Y-92906121D01*
X152580342Y-92952614D01*
X152528000Y-92964000D01*
X152069935Y-92964000D01*
X152001814Y-92943998D01*
X151966095Y-92909367D01*
X151882855Y-92788251D01*
X151882854Y-92788249D01*
X151878553Y-92781992D01*
X151760275Y-92676611D01*
X151752889Y-92672700D01*
X151626988Y-92606039D01*
X151626989Y-92606039D01*
X151620274Y-92602484D01*
X151466633Y-92563892D01*
X151459034Y-92563852D01*
X151459033Y-92563852D01*
X151393181Y-92563507D01*
X151308221Y-92563062D01*
X151300841Y-92564834D01*
X151300839Y-92564834D01*
X151161563Y-92598271D01*
X151161560Y-92598272D01*
X151154184Y-92600043D01*
X151013414Y-92672700D01*
X150894039Y-92776838D01*
X150802950Y-92906444D01*
X150801199Y-92905214D01*
X150758952Y-92948118D01*
X150697715Y-92964000D01*
X139572500Y-92964000D01*
X139504379Y-92943998D01*
X139457886Y-92890342D01*
X139446500Y-92838000D01*
X139446500Y-87464568D01*
X139784029Y-87464568D01*
X139785801Y-87471948D01*
X139785801Y-87471950D01*
X139820280Y-87615565D01*
X139823835Y-87630373D01*
X139902042Y-87781896D01*
X140014135Y-87910391D01*
X140153643Y-88008438D01*
X140249512Y-88045816D01*
X140305431Y-88067618D01*
X140305434Y-88067619D01*
X140312511Y-88070378D01*
X140320044Y-88071370D01*
X140320045Y-88071370D01*
X140438477Y-88086962D01*
X140438478Y-88086962D01*
X140442564Y-88087500D01*
X141331756Y-88087500D01*
X141458281Y-88072189D01*
X141617789Y-88011916D01*
X141721596Y-87940571D01*
X141752057Y-87919636D01*
X141752058Y-87919635D01*
X141758316Y-87915334D01*
X141767823Y-87904664D01*
X141866695Y-87793693D01*
X141866697Y-87793690D01*
X141871748Y-87788021D01*
X141951538Y-87637324D01*
X141955112Y-87623096D01*
X141991227Y-87479317D01*
X141991227Y-87479313D01*
X141993078Y-87471946D01*
X141993117Y-87464568D01*
X142814029Y-87464568D01*
X142815801Y-87471948D01*
X142815801Y-87471950D01*
X142850280Y-87615565D01*
X142853835Y-87630373D01*
X142932042Y-87781896D01*
X143044135Y-87910391D01*
X143183643Y-88008438D01*
X143279512Y-88045816D01*
X143335431Y-88067618D01*
X143335434Y-88067619D01*
X143342511Y-88070378D01*
X143350044Y-88071370D01*
X143350045Y-88071370D01*
X143468477Y-88086962D01*
X143468478Y-88086962D01*
X143472564Y-88087500D01*
X145061756Y-88087500D01*
X145188281Y-88072189D01*
X145347789Y-88011916D01*
X145451596Y-87940571D01*
X145482057Y-87919636D01*
X145482058Y-87919635D01*
X145488316Y-87915334D01*
X145497823Y-87904664D01*
X145596695Y-87793693D01*
X145596697Y-87793690D01*
X145601748Y-87788021D01*
X145681538Y-87637324D01*
X145685112Y-87623096D01*
X149708729Y-87623096D01*
X149726113Y-87780553D01*
X149728723Y-87787684D01*
X149728723Y-87787686D01*
X149777010Y-87919636D01*
X149780553Y-87929319D01*
X149784789Y-87935622D01*
X149784789Y-87935623D01*
X149837860Y-88014600D01*
X149868908Y-88060805D01*
X149874527Y-88065918D01*
X149874528Y-88065919D01*
X149980460Y-88162309D01*
X149986076Y-88167419D01*
X150125293Y-88243008D01*
X150278522Y-88283207D01*
X150362477Y-88284526D01*
X150429319Y-88285576D01*
X150429322Y-88285576D01*
X150436916Y-88285695D01*
X150591332Y-88250329D01*
X150661742Y-88214917D01*
X150726072Y-88182563D01*
X150726075Y-88182561D01*
X150732855Y-88179151D01*
X150738626Y-88174222D01*
X150738629Y-88174220D01*
X150847536Y-88081204D01*
X150847536Y-88081203D01*
X150853314Y-88076269D01*
X150945755Y-87947624D01*
X151004842Y-87800641D01*
X151027162Y-87643807D01*
X151027307Y-87630000D01*
X151008276Y-87472733D01*
X150952280Y-87324546D01*
X150936394Y-87301432D01*
X150866855Y-87200251D01*
X150866854Y-87200249D01*
X150862553Y-87193992D01*
X150744275Y-87088611D01*
X150736889Y-87084700D01*
X150610988Y-87018039D01*
X150610989Y-87018039D01*
X150604274Y-87014484D01*
X150450633Y-86975892D01*
X150443034Y-86975852D01*
X150443033Y-86975852D01*
X150377181Y-86975507D01*
X150292221Y-86975062D01*
X150284841Y-86976834D01*
X150284839Y-86976834D01*
X150145563Y-87010271D01*
X150145560Y-87010272D01*
X150138184Y-87012043D01*
X149997414Y-87084700D01*
X149878039Y-87188838D01*
X149786950Y-87318444D01*
X149784190Y-87325524D01*
X149732940Y-87456974D01*
X149729406Y-87466037D01*
X149708729Y-87623096D01*
X145685112Y-87623096D01*
X145721227Y-87479317D01*
X145721227Y-87479313D01*
X145723078Y-87471946D01*
X145723157Y-87456974D01*
X145723931Y-87309026D01*
X145723971Y-87301432D01*
X145698432Y-87195052D01*
X145685937Y-87143006D01*
X145685936Y-87143002D01*
X145684165Y-87135627D01*
X145621638Y-87014484D01*
X145609441Y-86990852D01*
X145609441Y-86990851D01*
X145605958Y-86984104D01*
X145598795Y-86975892D01*
X145498861Y-86861336D01*
X145493865Y-86855609D01*
X145439907Y-86817687D01*
X145395676Y-86762154D01*
X145388490Y-86691522D01*
X145420631Y-86628218D01*
X145464140Y-86598192D01*
X145546229Y-86564190D01*
X145553858Y-86561030D01*
X145565276Y-86552269D01*
X145673584Y-86469160D01*
X145680134Y-86464134D01*
X145730739Y-86398185D01*
X145772002Y-86344411D01*
X145772003Y-86344409D01*
X145777030Y-86337858D01*
X145807753Y-86263686D01*
X145834781Y-86198434D01*
X145834782Y-86198430D01*
X145837940Y-86190806D01*
X145850014Y-86099096D01*
X148247729Y-86099096D01*
X148265113Y-86256553D01*
X148267723Y-86263684D01*
X148267723Y-86263686D01*
X148302969Y-86360000D01*
X148319553Y-86405319D01*
X148323789Y-86411622D01*
X148323789Y-86411623D01*
X148365048Y-86473022D01*
X148407908Y-86536805D01*
X148413527Y-86541918D01*
X148413528Y-86541919D01*
X148501471Y-86621940D01*
X148525076Y-86643419D01*
X148664293Y-86719008D01*
X148817522Y-86759207D01*
X148901477Y-86760526D01*
X148968319Y-86761576D01*
X148968322Y-86761576D01*
X148975916Y-86761695D01*
X149130332Y-86726329D01*
X149224524Y-86678956D01*
X149265072Y-86658563D01*
X149265075Y-86658561D01*
X149271855Y-86655151D01*
X149277626Y-86650222D01*
X149277629Y-86650220D01*
X149386536Y-86557204D01*
X149386536Y-86557203D01*
X149392314Y-86552269D01*
X149484755Y-86423624D01*
X149543842Y-86276641D01*
X149556689Y-86186373D01*
X149565581Y-86123891D01*
X149565581Y-86123888D01*
X149566162Y-86119807D01*
X149566307Y-86106000D01*
X149547276Y-85948733D01*
X149491280Y-85800546D01*
X149401553Y-85669992D01*
X149283275Y-85564611D01*
X149275889Y-85560700D01*
X149149988Y-85494039D01*
X149149989Y-85494039D01*
X149143274Y-85490484D01*
X148989633Y-85451892D01*
X148982034Y-85451852D01*
X148982033Y-85451852D01*
X148916181Y-85451507D01*
X148831221Y-85451062D01*
X148823841Y-85452834D01*
X148823839Y-85452834D01*
X148684563Y-85486271D01*
X148684560Y-85486272D01*
X148677184Y-85488043D01*
X148536414Y-85560700D01*
X148417039Y-85664838D01*
X148325950Y-85794444D01*
X148268406Y-85942037D01*
X148267414Y-85949570D01*
X148267414Y-85949571D01*
X148255353Y-86041188D01*
X148247729Y-86099096D01*
X145850014Y-86099096D01*
X145858716Y-86033000D01*
X145837940Y-85875194D01*
X145834782Y-85867570D01*
X145834781Y-85867566D01*
X145780191Y-85735773D01*
X145780190Y-85735772D01*
X145777030Y-85728142D01*
X145732410Y-85669992D01*
X145685160Y-85608416D01*
X145680134Y-85601866D01*
X145553858Y-85504970D01*
X145527468Y-85494039D01*
X145414434Y-85447219D01*
X145414430Y-85447218D01*
X145406806Y-85444060D01*
X145249000Y-85423284D01*
X145091194Y-85444060D01*
X145083570Y-85447218D01*
X145083566Y-85447219D01*
X144970532Y-85494039D01*
X144944142Y-85504970D01*
X144817866Y-85601866D01*
X144812840Y-85608416D01*
X144765591Y-85669992D01*
X144720970Y-85728142D01*
X144717810Y-85735772D01*
X144717809Y-85735773D01*
X144690409Y-85801924D01*
X144645861Y-85857206D01*
X144578498Y-85879627D01*
X144509707Y-85862069D01*
X144461328Y-85810107D01*
X144457591Y-85801924D01*
X144430191Y-85735773D01*
X144430190Y-85735772D01*
X144427030Y-85728142D01*
X144382410Y-85669992D01*
X144335160Y-85608416D01*
X144330134Y-85601866D01*
X144203858Y-85504970D01*
X144177468Y-85494039D01*
X144064434Y-85447219D01*
X144064430Y-85447218D01*
X144056806Y-85444060D01*
X143899000Y-85423284D01*
X143741194Y-85444060D01*
X143733570Y-85447218D01*
X143733566Y-85447219D01*
X143620532Y-85494039D01*
X143594142Y-85504970D01*
X143467866Y-85601866D01*
X143462840Y-85608416D01*
X143415591Y-85669992D01*
X143370970Y-85728142D01*
X143367810Y-85735772D01*
X143367809Y-85735773D01*
X143313219Y-85867566D01*
X143313218Y-85867570D01*
X143310060Y-85875194D01*
X143289284Y-86033000D01*
X143310060Y-86190806D01*
X143313218Y-86198430D01*
X143313219Y-86198434D01*
X143340247Y-86263686D01*
X143370970Y-86337858D01*
X143375997Y-86344409D01*
X143375998Y-86344411D01*
X143417261Y-86398185D01*
X143467866Y-86464134D01*
X143474416Y-86469160D01*
X143478278Y-86473022D01*
X143512304Y-86535334D01*
X143507239Y-86606149D01*
X143464692Y-86662985D01*
X143404323Y-86687203D01*
X143349719Y-86693811D01*
X143190211Y-86754084D01*
X143049684Y-86850666D01*
X143044632Y-86856336D01*
X143044631Y-86856337D01*
X142941305Y-86972307D01*
X142941303Y-86972310D01*
X142936252Y-86977979D01*
X142932697Y-86984692D01*
X142932697Y-86984693D01*
X142877105Y-87089689D01*
X142856462Y-87128676D01*
X142854612Y-87136041D01*
X142838484Y-87200251D01*
X142814922Y-87294054D01*
X142814882Y-87301653D01*
X142814882Y-87301655D01*
X142814827Y-87312228D01*
X142814029Y-87464568D01*
X141993117Y-87464568D01*
X141993157Y-87456974D01*
X141993931Y-87309026D01*
X141993971Y-87301432D01*
X141968432Y-87195052D01*
X141955937Y-87143006D01*
X141955936Y-87143002D01*
X141954165Y-87135627D01*
X141891638Y-87014484D01*
X141879441Y-86990852D01*
X141879441Y-86990851D01*
X141875958Y-86984104D01*
X141868795Y-86975892D01*
X141768861Y-86861336D01*
X141763865Y-86855609D01*
X141624357Y-86757562D01*
X141516179Y-86715385D01*
X141472569Y-86698382D01*
X141472566Y-86698381D01*
X141465489Y-86695622D01*
X141457956Y-86694630D01*
X141457955Y-86694630D01*
X141339523Y-86679038D01*
X141339522Y-86679038D01*
X141335436Y-86678500D01*
X140446244Y-86678500D01*
X140319719Y-86693811D01*
X140160211Y-86754084D01*
X140019684Y-86850666D01*
X140014632Y-86856336D01*
X140014631Y-86856337D01*
X139911305Y-86972307D01*
X139911303Y-86972310D01*
X139906252Y-86977979D01*
X139902697Y-86984692D01*
X139902697Y-86984693D01*
X139847105Y-87089689D01*
X139826462Y-87128676D01*
X139824612Y-87136041D01*
X139808484Y-87200251D01*
X139784922Y-87294054D01*
X139784882Y-87301653D01*
X139784882Y-87301655D01*
X139784827Y-87312228D01*
X139784029Y-87464568D01*
X139446500Y-87464568D01*
X139446500Y-84333000D01*
X143289284Y-84333000D01*
X143310060Y-84490806D01*
X143313218Y-84498430D01*
X143313219Y-84498434D01*
X143340409Y-84564076D01*
X143370970Y-84637858D01*
X143467866Y-84764134D01*
X143594142Y-84861030D01*
X143601772Y-84864190D01*
X143601773Y-84864191D01*
X143733566Y-84918781D01*
X143733570Y-84918782D01*
X143741194Y-84921940D01*
X143899000Y-84942716D01*
X144056806Y-84921940D01*
X144064430Y-84918782D01*
X144064434Y-84918781D01*
X144196227Y-84864191D01*
X144196228Y-84864190D01*
X144203858Y-84861030D01*
X144330134Y-84764134D01*
X144427030Y-84637858D01*
X144457591Y-84564076D01*
X144502139Y-84508794D01*
X144569502Y-84486373D01*
X144638293Y-84503931D01*
X144686672Y-84555893D01*
X144690409Y-84564075D01*
X144720970Y-84637858D01*
X144817866Y-84764134D01*
X144944142Y-84861030D01*
X144951772Y-84864190D01*
X144951773Y-84864191D01*
X145083566Y-84918781D01*
X145083570Y-84918782D01*
X145091194Y-84921940D01*
X145249000Y-84942716D01*
X145406806Y-84921940D01*
X145414430Y-84918782D01*
X145414434Y-84918781D01*
X145546227Y-84864191D01*
X145546228Y-84864190D01*
X145553858Y-84861030D01*
X145680134Y-84764134D01*
X145777030Y-84637858D01*
X145807591Y-84564076D01*
X145834781Y-84498434D01*
X145834782Y-84498430D01*
X145837940Y-84490806D01*
X145858716Y-84333000D01*
X145837940Y-84175194D01*
X145834782Y-84167570D01*
X145834781Y-84167566D01*
X145780191Y-84035773D01*
X145780190Y-84035772D01*
X145777030Y-84028142D01*
X145743697Y-83984703D01*
X145718098Y-83918483D01*
X145732363Y-83848935D01*
X145743695Y-83831300D01*
X145777030Y-83787858D01*
X145780191Y-83780227D01*
X145834781Y-83648434D01*
X145834782Y-83648430D01*
X145837940Y-83640806D01*
X145858716Y-83483000D01*
X145837940Y-83325194D01*
X145834782Y-83317570D01*
X145834781Y-83317566D01*
X145780191Y-83185773D01*
X145780190Y-83185772D01*
X145777030Y-83178142D01*
X145743697Y-83134703D01*
X145718098Y-83068483D01*
X145732363Y-82998935D01*
X145743695Y-82981300D01*
X145777030Y-82937858D01*
X145807591Y-82864076D01*
X145834781Y-82798434D01*
X145834782Y-82798430D01*
X145837940Y-82790806D01*
X145858716Y-82633000D01*
X145837940Y-82475194D01*
X145834782Y-82467570D01*
X145834781Y-82467566D01*
X145780191Y-82335773D01*
X145780190Y-82335772D01*
X145777030Y-82328142D01*
X145743697Y-82284703D01*
X145718098Y-82218483D01*
X145732363Y-82148935D01*
X145743695Y-82131300D01*
X145777030Y-82087858D01*
X145807591Y-82014076D01*
X145834781Y-81948434D01*
X145834782Y-81948430D01*
X145837940Y-81940806D01*
X145858716Y-81783000D01*
X145837940Y-81625194D01*
X145834782Y-81617570D01*
X145834781Y-81617566D01*
X145780191Y-81485773D01*
X145780190Y-81485772D01*
X145777030Y-81478142D01*
X145680134Y-81351866D01*
X145660696Y-81336950D01*
X145560411Y-81259998D01*
X145560409Y-81259997D01*
X145553858Y-81254970D01*
X145546227Y-81251809D01*
X145414434Y-81197219D01*
X145414430Y-81197218D01*
X145406806Y-81194060D01*
X145249000Y-81173284D01*
X145091194Y-81194060D01*
X145083570Y-81197218D01*
X145083566Y-81197219D01*
X144951773Y-81251809D01*
X144944142Y-81254970D01*
X144937591Y-81259997D01*
X144937589Y-81259998D01*
X144837304Y-81336950D01*
X144817866Y-81351866D01*
X144720970Y-81478142D01*
X144717810Y-81485772D01*
X144717809Y-81485773D01*
X144690409Y-81551924D01*
X144645861Y-81607206D01*
X144578498Y-81629627D01*
X144509707Y-81612069D01*
X144461328Y-81560107D01*
X144457591Y-81551924D01*
X144430191Y-81485773D01*
X144430190Y-81485772D01*
X144427030Y-81478142D01*
X144330134Y-81351866D01*
X144310696Y-81336950D01*
X144210411Y-81259998D01*
X144210409Y-81259997D01*
X144203858Y-81254970D01*
X144196227Y-81251809D01*
X144064434Y-81197219D01*
X144064430Y-81197218D01*
X144056806Y-81194060D01*
X143899000Y-81173284D01*
X143741194Y-81194060D01*
X143733570Y-81197218D01*
X143733566Y-81197219D01*
X143601773Y-81251809D01*
X143594142Y-81254970D01*
X143587591Y-81259997D01*
X143587589Y-81259998D01*
X143487304Y-81336950D01*
X143467866Y-81351866D01*
X143370970Y-81478142D01*
X143367810Y-81485772D01*
X143367809Y-81485773D01*
X143313219Y-81617566D01*
X143313218Y-81617570D01*
X143310060Y-81625194D01*
X143289284Y-81783000D01*
X143310060Y-81940806D01*
X143313218Y-81948430D01*
X143313219Y-81948434D01*
X143340409Y-82014076D01*
X143370970Y-82087858D01*
X143404303Y-82131297D01*
X143429902Y-82197517D01*
X143415637Y-82267065D01*
X143404305Y-82284700D01*
X143370970Y-82328142D01*
X143367810Y-82335772D01*
X143367809Y-82335773D01*
X143313219Y-82467566D01*
X143313218Y-82467570D01*
X143310060Y-82475194D01*
X143289284Y-82633000D01*
X143310060Y-82790806D01*
X143313218Y-82798430D01*
X143313219Y-82798434D01*
X143340409Y-82864076D01*
X143370970Y-82937858D01*
X143404303Y-82981297D01*
X143429902Y-83047517D01*
X143415637Y-83117065D01*
X143404305Y-83134700D01*
X143370970Y-83178142D01*
X143367810Y-83185772D01*
X143367809Y-83185773D01*
X143313219Y-83317566D01*
X143313218Y-83317570D01*
X143310060Y-83325194D01*
X143289284Y-83483000D01*
X143310060Y-83640806D01*
X143313218Y-83648430D01*
X143313219Y-83648434D01*
X143367809Y-83780227D01*
X143370970Y-83787858D01*
X143404303Y-83831297D01*
X143429902Y-83897517D01*
X143415637Y-83967065D01*
X143404305Y-83984700D01*
X143370970Y-84028142D01*
X143367810Y-84035772D01*
X143367809Y-84035773D01*
X143313219Y-84167566D01*
X143313218Y-84167570D01*
X143310060Y-84175194D01*
X143289284Y-84333000D01*
X139446500Y-84333000D01*
X139446500Y-78814568D01*
X139784029Y-78814568D01*
X139823835Y-78980373D01*
X139902042Y-79131896D01*
X140014135Y-79260391D01*
X140153643Y-79358438D01*
X140249512Y-79395816D01*
X140305431Y-79417618D01*
X140305434Y-79417619D01*
X140312511Y-79420378D01*
X140320044Y-79421370D01*
X140320045Y-79421370D01*
X140438477Y-79436962D01*
X140438478Y-79436962D01*
X140442564Y-79437500D01*
X141331756Y-79437500D01*
X141458281Y-79422189D01*
X141617789Y-79361916D01*
X141758316Y-79265334D01*
X141767823Y-79254664D01*
X141866695Y-79143693D01*
X141866697Y-79143690D01*
X141871748Y-79138021D01*
X141951538Y-78987324D01*
X141953388Y-78979959D01*
X141991227Y-78829317D01*
X141991227Y-78829313D01*
X141993078Y-78821946D01*
X141993117Y-78814568D01*
X142814029Y-78814568D01*
X142853835Y-78980373D01*
X142932042Y-79131896D01*
X143044135Y-79260391D01*
X143183643Y-79358438D01*
X143279512Y-79395816D01*
X143335431Y-79417618D01*
X143335434Y-79417619D01*
X143342511Y-79420378D01*
X143350042Y-79421369D01*
X143350044Y-79421370D01*
X143405872Y-79428720D01*
X143470798Y-79457443D01*
X143509889Y-79516709D01*
X143510734Y-79587700D01*
X143478519Y-79642737D01*
X143474416Y-79646840D01*
X143467866Y-79651866D01*
X143370970Y-79778142D01*
X143367810Y-79785772D01*
X143367809Y-79785773D01*
X143313219Y-79917566D01*
X143313218Y-79917570D01*
X143310060Y-79925194D01*
X143289284Y-80083000D01*
X143310060Y-80240806D01*
X143313218Y-80248430D01*
X143313219Y-80248434D01*
X143362858Y-80368273D01*
X143370970Y-80387858D01*
X143467866Y-80514134D01*
X143594142Y-80611030D01*
X143601772Y-80614190D01*
X143601773Y-80614191D01*
X143733566Y-80668781D01*
X143733570Y-80668782D01*
X143741194Y-80671940D01*
X143899000Y-80692716D01*
X144056806Y-80671940D01*
X144064430Y-80668782D01*
X144064434Y-80668781D01*
X144196227Y-80614191D01*
X144196228Y-80614190D01*
X144203858Y-80611030D01*
X144330134Y-80514134D01*
X144427030Y-80387858D01*
X144443972Y-80346957D01*
X144457591Y-80314076D01*
X144502139Y-80258794D01*
X144569502Y-80236373D01*
X144638293Y-80253931D01*
X144686672Y-80305893D01*
X144690409Y-80314076D01*
X144704029Y-80346957D01*
X144720970Y-80387858D01*
X144817866Y-80514134D01*
X144944142Y-80611030D01*
X144951772Y-80614190D01*
X144951773Y-80614191D01*
X145083566Y-80668781D01*
X145083570Y-80668782D01*
X145091194Y-80671940D01*
X145249000Y-80692716D01*
X145406806Y-80671940D01*
X145414430Y-80668782D01*
X145414434Y-80668781D01*
X145546227Y-80614191D01*
X145546228Y-80614190D01*
X145553858Y-80611030D01*
X145680134Y-80514134D01*
X145682465Y-80511096D01*
X148247729Y-80511096D01*
X148265113Y-80668553D01*
X148267723Y-80675684D01*
X148267723Y-80675686D01*
X148285983Y-80725583D01*
X148319553Y-80817319D01*
X148407908Y-80948805D01*
X148413527Y-80953918D01*
X148413528Y-80953919D01*
X148424903Y-80964269D01*
X148525076Y-81055419D01*
X148664293Y-81131008D01*
X148817522Y-81171207D01*
X148901477Y-81172526D01*
X148968319Y-81173576D01*
X148968322Y-81173576D01*
X148975916Y-81173695D01*
X149130332Y-81138329D01*
X149200742Y-81102917D01*
X149265072Y-81070563D01*
X149265075Y-81070561D01*
X149271855Y-81067151D01*
X149277626Y-81062222D01*
X149277629Y-81062220D01*
X149386536Y-80969204D01*
X149386536Y-80969203D01*
X149392314Y-80964269D01*
X149484755Y-80835624D01*
X149543842Y-80688641D01*
X149566162Y-80531807D01*
X149566307Y-80518000D01*
X149547276Y-80360733D01*
X149491280Y-80212546D01*
X149474066Y-80187500D01*
X149405855Y-80088251D01*
X149405854Y-80088249D01*
X149401553Y-80081992D01*
X149283275Y-79976611D01*
X149275889Y-79972700D01*
X149194538Y-79929627D01*
X149143274Y-79902484D01*
X148989633Y-79863892D01*
X148982034Y-79863852D01*
X148982033Y-79863852D01*
X148916181Y-79863507D01*
X148831221Y-79863062D01*
X148823841Y-79864834D01*
X148823839Y-79864834D01*
X148684563Y-79898271D01*
X148684560Y-79898272D01*
X148677184Y-79900043D01*
X148536414Y-79972700D01*
X148417039Y-80076838D01*
X148325950Y-80206444D01*
X148323190Y-80213524D01*
X148287177Y-80305893D01*
X148268406Y-80354037D01*
X148267414Y-80361570D01*
X148267414Y-80361571D01*
X148251176Y-80484916D01*
X148247729Y-80511096D01*
X145682465Y-80511096D01*
X145777030Y-80387858D01*
X145785142Y-80368273D01*
X145834781Y-80248434D01*
X145834782Y-80248430D01*
X145837940Y-80240806D01*
X145858716Y-80083000D01*
X145837940Y-79925194D01*
X145834782Y-79917570D01*
X145834781Y-79917566D01*
X145780191Y-79785773D01*
X145780190Y-79785772D01*
X145777030Y-79778142D01*
X145680134Y-79651866D01*
X145660696Y-79636950D01*
X145560411Y-79559998D01*
X145560409Y-79559997D01*
X145553858Y-79554970D01*
X145546229Y-79551810D01*
X145464413Y-79517921D01*
X145409132Y-79473373D01*
X145386711Y-79406009D01*
X145404269Y-79337218D01*
X145441264Y-79297672D01*
X145482057Y-79269636D01*
X145482058Y-79269635D01*
X145488316Y-79265334D01*
X145497823Y-79254664D01*
X145596695Y-79143693D01*
X145596697Y-79143690D01*
X145601748Y-79138021D01*
X145681538Y-78987324D01*
X145683388Y-78979959D01*
X145721227Y-78829317D01*
X145721227Y-78829313D01*
X145723078Y-78821946D01*
X145723157Y-78806974D01*
X145723931Y-78659026D01*
X145723971Y-78651432D01*
X145684165Y-78485627D01*
X145605958Y-78334104D01*
X145493865Y-78205609D01*
X145354357Y-78107562D01*
X145258488Y-78070184D01*
X145202569Y-78048382D01*
X145202566Y-78048381D01*
X145195489Y-78045622D01*
X145187956Y-78044630D01*
X145187955Y-78044630D01*
X145069523Y-78029038D01*
X145069522Y-78029038D01*
X145065436Y-78028500D01*
X143476244Y-78028500D01*
X143349719Y-78043811D01*
X143190211Y-78104084D01*
X143049684Y-78200666D01*
X143044632Y-78206336D01*
X143044631Y-78206337D01*
X142941305Y-78322307D01*
X142941303Y-78322310D01*
X142936252Y-78327979D01*
X142856462Y-78478676D01*
X142854612Y-78486041D01*
X142852863Y-78493006D01*
X142814922Y-78644054D01*
X142814882Y-78651653D01*
X142814882Y-78651655D01*
X142814511Y-78722571D01*
X142814029Y-78814568D01*
X141993117Y-78814568D01*
X141993157Y-78806974D01*
X141993931Y-78659026D01*
X141993971Y-78651432D01*
X141954165Y-78485627D01*
X141875958Y-78334104D01*
X141763865Y-78205609D01*
X141624357Y-78107562D01*
X141528488Y-78070184D01*
X141472569Y-78048382D01*
X141472566Y-78048381D01*
X141465489Y-78045622D01*
X141457956Y-78044630D01*
X141457955Y-78044630D01*
X141339523Y-78029038D01*
X141339522Y-78029038D01*
X141335436Y-78028500D01*
X140446244Y-78028500D01*
X140319719Y-78043811D01*
X140160211Y-78104084D01*
X140019684Y-78200666D01*
X140014632Y-78206336D01*
X140014631Y-78206337D01*
X139911305Y-78322307D01*
X139911303Y-78322310D01*
X139906252Y-78327979D01*
X139826462Y-78478676D01*
X139824612Y-78486041D01*
X139822863Y-78493006D01*
X139784922Y-78644054D01*
X139784882Y-78651653D01*
X139784882Y-78651655D01*
X139784511Y-78722571D01*
X139784029Y-78814568D01*
X139446500Y-78814568D01*
X139446500Y-75221476D01*
X139448921Y-75196894D01*
X139449065Y-75196170D01*
X139451486Y-75184000D01*
X139449065Y-75171828D01*
X139449065Y-75159421D01*
X139449705Y-75159421D01*
X139449029Y-75148639D01*
X139453376Y-75087869D01*
X139463624Y-74944580D01*
X139466182Y-74926786D01*
X139490079Y-74816933D01*
X142151500Y-74816933D01*
X142151501Y-76567066D01*
X142166266Y-76641301D01*
X142173161Y-76651620D01*
X142173162Y-76651622D01*
X142183312Y-76666812D01*
X142222516Y-76725484D01*
X142306699Y-76781734D01*
X142380933Y-76796500D01*
X143255858Y-76796500D01*
X144131066Y-76796499D01*
X144166818Y-76789388D01*
X144193126Y-76784156D01*
X144193128Y-76784155D01*
X144205301Y-76781734D01*
X144215621Y-76774839D01*
X144215622Y-76774838D01*
X144279168Y-76732377D01*
X144289484Y-76725484D01*
X144334894Y-76657524D01*
X144338839Y-76651620D01*
X144345734Y-76641301D01*
X144360500Y-76567067D01*
X144360499Y-74816934D01*
X144345734Y-74742699D01*
X144319654Y-74703667D01*
X144296377Y-74668832D01*
X144289484Y-74658516D01*
X144205301Y-74602266D01*
X144131067Y-74587500D01*
X143256142Y-74587500D01*
X142380934Y-74587501D01*
X142345182Y-74594612D01*
X142318874Y-74599844D01*
X142318872Y-74599845D01*
X142306699Y-74602266D01*
X142296379Y-74609161D01*
X142296378Y-74609162D01*
X142279314Y-74620564D01*
X142222516Y-74658516D01*
X142166266Y-74742699D01*
X142151500Y-74816933D01*
X139490079Y-74816933D01*
X139515290Y-74701040D01*
X139520355Y-74683791D01*
X139556759Y-74586187D01*
X139601090Y-74467330D01*
X139608556Y-74450983D01*
X139719275Y-74248218D01*
X139728994Y-74233095D01*
X139867441Y-74048152D01*
X139879214Y-74034566D01*
X140042566Y-73871214D01*
X140056152Y-73859441D01*
X140241095Y-73720994D01*
X140256218Y-73711275D01*
X140458983Y-73600556D01*
X140475330Y-73593090D01*
X140636644Y-73532923D01*
X140691791Y-73512355D01*
X140709040Y-73507290D01*
X140934786Y-73458182D01*
X140952580Y-73455624D01*
X140972752Y-73454181D01*
X141156642Y-73441029D01*
X141167421Y-73441705D01*
X141167421Y-73441065D01*
X141179828Y-73441065D01*
X141192000Y-73443486D01*
X141204897Y-73440921D01*
X141229476Y-73438500D01*
X149988000Y-73438500D01*
X150056121Y-73458502D01*
G37*
%TD.AperFunction*%
%TD*%
%TA.AperFunction,Conductor*%
%TO.N,+9V*%
G36*
X141748632Y-93492002D02*
G01*
X141795125Y-93545658D01*
X141805229Y-93615932D01*
X141775735Y-93680512D01*
X141709925Y-93720519D01*
X141646646Y-93735711D01*
X141642075Y-93737604D01*
X141642073Y-93737605D01*
X141432433Y-93824441D01*
X141432429Y-93824443D01*
X141427859Y-93826336D01*
X141225943Y-93950070D01*
X141045868Y-94103868D01*
X140892070Y-94283943D01*
X140768336Y-94485859D01*
X140677711Y-94704646D01*
X140622428Y-94934917D01*
X140603848Y-95171000D01*
X140622428Y-95407083D01*
X140677711Y-95637354D01*
X140768336Y-95856141D01*
X140892070Y-96058057D01*
X141045868Y-96238132D01*
X141225943Y-96391930D01*
X141427859Y-96515664D01*
X141432429Y-96517557D01*
X141432433Y-96517559D01*
X141642073Y-96604395D01*
X141642075Y-96604396D01*
X141646646Y-96606289D01*
X141726499Y-96625460D01*
X141872104Y-96660417D01*
X141872110Y-96660418D01*
X141876917Y-96661572D01*
X142113000Y-96680152D01*
X142349083Y-96661572D01*
X142353890Y-96660418D01*
X142353896Y-96660417D01*
X142499501Y-96625460D01*
X142579354Y-96606289D01*
X142583925Y-96604396D01*
X142583927Y-96604395D01*
X142793567Y-96517559D01*
X142793571Y-96517557D01*
X142798141Y-96515664D01*
X143000057Y-96391930D01*
X143180132Y-96238132D01*
X143333930Y-96058057D01*
X143457664Y-95856141D01*
X143548289Y-95637354D01*
X143603572Y-95407083D01*
X143622152Y-95171000D01*
X143603572Y-94934917D01*
X143548289Y-94704646D01*
X143457664Y-94485859D01*
X143333930Y-94283943D01*
X143180132Y-94103868D01*
X143000057Y-93950070D01*
X142798141Y-93826336D01*
X142793571Y-93824443D01*
X142793567Y-93824441D01*
X142583927Y-93737605D01*
X142583925Y-93737604D01*
X142579354Y-93735711D01*
X142516075Y-93720519D01*
X142454506Y-93685167D01*
X142421823Y-93622140D01*
X142428404Y-93551449D01*
X142472158Y-93495538D01*
X142545489Y-93472000D01*
X150698963Y-93472000D01*
X150767084Y-93492002D01*
X150803545Y-93527724D01*
X150884908Y-93648805D01*
X150890527Y-93653918D01*
X150890528Y-93653919D01*
X150996460Y-93750309D01*
X151002076Y-93755419D01*
X151141293Y-93831008D01*
X151294522Y-93871207D01*
X151378477Y-93872526D01*
X151445319Y-93873576D01*
X151445322Y-93873576D01*
X151452916Y-93873695D01*
X151607332Y-93838329D01*
X151677742Y-93802917D01*
X151742072Y-93770563D01*
X151742075Y-93770561D01*
X151748855Y-93767151D01*
X151754626Y-93762222D01*
X151754629Y-93762220D01*
X151863536Y-93669204D01*
X151863536Y-93669203D01*
X151869314Y-93664269D01*
X151961755Y-93535624D01*
X151961941Y-93535161D01*
X152010140Y-93487239D01*
X152070207Y-93472000D01*
X152528000Y-93472000D01*
X152596121Y-93492002D01*
X152642614Y-93545658D01*
X152654000Y-93598000D01*
X152654000Y-104637373D01*
X152633998Y-104705494D01*
X152580342Y-104751987D01*
X152510068Y-104762091D01*
X152497305Y-104759577D01*
X152490004Y-104757743D01*
X152490000Y-104757743D01*
X152482633Y-104755892D01*
X152475034Y-104755852D01*
X152475033Y-104755852D01*
X152409181Y-104755507D01*
X152324221Y-104755062D01*
X152316841Y-104756834D01*
X152316839Y-104756834D01*
X152177563Y-104790271D01*
X152177560Y-104790272D01*
X152170184Y-104792043D01*
X152029414Y-104864700D01*
X151910039Y-104968838D01*
X151818950Y-105098444D01*
X151761406Y-105246037D01*
X151740729Y-105403096D01*
X151758113Y-105560553D01*
X151812553Y-105709319D01*
X151900908Y-105840805D01*
X152018076Y-105947419D01*
X152157293Y-106023008D01*
X152310522Y-106063207D01*
X152394477Y-106064526D01*
X152461319Y-106065576D01*
X152461322Y-106065576D01*
X152468916Y-106065695D01*
X152476318Y-106064000D01*
X152476325Y-106063999D01*
X152499872Y-106058606D01*
X152570739Y-106062896D01*
X152628036Y-106104819D01*
X152653573Y-106171063D01*
X152654000Y-106181426D01*
X152654000Y-109728000D01*
X159639500Y-109728000D01*
X159707621Y-109748002D01*
X159754114Y-109801658D01*
X159765500Y-109854000D01*
X159765500Y-120930524D01*
X159763079Y-120955103D01*
X159760514Y-120968000D01*
X159762935Y-120980172D01*
X159762935Y-120992579D01*
X159762295Y-120992579D01*
X159762971Y-121003361D01*
X159748376Y-121207420D01*
X159745818Y-121225214D01*
X159696710Y-121450960D01*
X159691645Y-121468209D01*
X159678488Y-121503485D01*
X159610910Y-121684670D01*
X159603444Y-121701017D01*
X159492725Y-121903782D01*
X159483006Y-121918905D01*
X159344559Y-122103848D01*
X159332786Y-122117434D01*
X159169434Y-122280786D01*
X159155848Y-122292559D01*
X158970905Y-122431006D01*
X158955782Y-122440725D01*
X158753017Y-122551444D01*
X158736670Y-122558910D01*
X158575356Y-122619077D01*
X158520209Y-122639645D01*
X158502960Y-122644710D01*
X158277214Y-122693818D01*
X158259420Y-122696376D01*
X158239248Y-122697819D01*
X158055358Y-122710971D01*
X158044579Y-122710295D01*
X158044579Y-122710935D01*
X158032172Y-122710935D01*
X158020000Y-122708514D01*
X158007103Y-122711079D01*
X157982524Y-122713500D01*
X141229476Y-122713500D01*
X141204897Y-122711079D01*
X141192000Y-122708514D01*
X141179828Y-122710935D01*
X141167421Y-122710935D01*
X141167421Y-122710295D01*
X141156642Y-122710971D01*
X140972752Y-122697819D01*
X140952580Y-122696376D01*
X140934786Y-122693818D01*
X140709040Y-122644710D01*
X140691791Y-122639645D01*
X140636644Y-122619077D01*
X140475330Y-122558910D01*
X140458983Y-122551444D01*
X140256218Y-122440725D01*
X140241095Y-122431006D01*
X140056152Y-122292559D01*
X140042566Y-122280786D01*
X139879214Y-122117434D01*
X139867441Y-122103848D01*
X139728994Y-121918905D01*
X139719275Y-121903782D01*
X139608556Y-121701017D01*
X139601090Y-121684670D01*
X139533512Y-121503485D01*
X139520355Y-121468209D01*
X139515290Y-121450960D01*
X139466182Y-121225214D01*
X139463624Y-121207420D01*
X139449029Y-121003361D01*
X139449705Y-120992579D01*
X139449065Y-120992579D01*
X139449065Y-120980172D01*
X139451486Y-120968000D01*
X139448921Y-120955103D01*
X139446500Y-120930524D01*
X139446500Y-119520933D01*
X152565500Y-119520933D01*
X152565501Y-121271066D01*
X152580266Y-121345301D01*
X152587161Y-121355620D01*
X152587162Y-121355622D01*
X152627516Y-121416015D01*
X152636516Y-121429484D01*
X152720699Y-121485734D01*
X152794933Y-121500500D01*
X153669858Y-121500500D01*
X154545066Y-121500499D01*
X154580818Y-121493388D01*
X154607126Y-121488156D01*
X154607128Y-121488155D01*
X154619301Y-121485734D01*
X154629621Y-121478839D01*
X154629622Y-121478838D01*
X154693168Y-121436377D01*
X154703484Y-121429484D01*
X154759734Y-121345301D01*
X154774500Y-121271067D01*
X154774499Y-120366964D01*
X155101148Y-120366964D01*
X155114424Y-120569522D01*
X155115845Y-120575118D01*
X155115846Y-120575123D01*
X155136119Y-120654945D01*
X155164392Y-120766269D01*
X155166809Y-120771512D01*
X155204010Y-120852208D01*
X155249377Y-120950616D01*
X155366533Y-121116389D01*
X155511938Y-121258035D01*
X155680720Y-121370812D01*
X155686023Y-121373090D01*
X155686026Y-121373092D01*
X155817283Y-121429484D01*
X155867228Y-121450942D01*
X155906216Y-121459764D01*
X156059579Y-121494467D01*
X156059584Y-121494468D01*
X156065216Y-121495742D01*
X156070987Y-121495969D01*
X156070989Y-121495969D01*
X156130756Y-121498317D01*
X156268053Y-121503712D01*
X156375348Y-121488155D01*
X156463231Y-121475413D01*
X156463236Y-121475412D01*
X156468945Y-121474584D01*
X156474409Y-121472729D01*
X156474414Y-121472728D01*
X156655693Y-121411192D01*
X156655698Y-121411190D01*
X156661165Y-121409334D01*
X156838276Y-121310147D01*
X156877969Y-121277135D01*
X156989913Y-121184031D01*
X156994345Y-121180345D01*
X157124147Y-121024276D01*
X157223334Y-120847165D01*
X157225190Y-120841698D01*
X157225192Y-120841693D01*
X157286728Y-120660414D01*
X157286729Y-120660409D01*
X157288584Y-120654945D01*
X157289412Y-120649236D01*
X157289413Y-120649231D01*
X157317179Y-120457727D01*
X157317712Y-120454053D01*
X157319232Y-120396000D01*
X157300658Y-120193859D01*
X157299090Y-120188299D01*
X157247125Y-120004046D01*
X157247124Y-120004044D01*
X157245557Y-119998487D01*
X157234978Y-119977033D01*
X157158331Y-119821609D01*
X157155776Y-119816428D01*
X157034320Y-119653779D01*
X156885258Y-119515987D01*
X156880375Y-119512906D01*
X156880371Y-119512903D01*
X156718464Y-119410748D01*
X156713581Y-119407667D01*
X156525039Y-119332446D01*
X156519379Y-119331320D01*
X156519375Y-119331319D01*
X156331613Y-119293971D01*
X156331610Y-119293971D01*
X156325946Y-119292844D01*
X156320171Y-119292768D01*
X156320167Y-119292768D01*
X156218793Y-119291441D01*
X156122971Y-119290187D01*
X156117274Y-119291166D01*
X156117273Y-119291166D01*
X156029397Y-119306266D01*
X155922910Y-119324564D01*
X155732463Y-119394824D01*
X155558010Y-119498612D01*
X155553670Y-119502418D01*
X155553666Y-119502421D01*
X155409733Y-119628648D01*
X155405392Y-119632455D01*
X155279720Y-119791869D01*
X155277031Y-119796980D01*
X155277029Y-119796983D01*
X155264073Y-119821609D01*
X155185203Y-119971515D01*
X155125007Y-120165378D01*
X155101148Y-120366964D01*
X154774499Y-120366964D01*
X154774499Y-119520934D01*
X154759734Y-119446699D01*
X154733654Y-119407667D01*
X154710377Y-119372832D01*
X154703484Y-119362516D01*
X154619301Y-119306266D01*
X154545067Y-119291500D01*
X153670142Y-119291500D01*
X152794934Y-119291501D01*
X152759182Y-119298612D01*
X152732874Y-119303844D01*
X152732872Y-119303845D01*
X152720699Y-119306266D01*
X152710379Y-119313161D01*
X152710378Y-119313162D01*
X152649985Y-119353516D01*
X152636516Y-119362516D01*
X152580266Y-119446699D01*
X152565500Y-119520933D01*
X139446500Y-119520933D01*
X139446500Y-116566964D01*
X142401148Y-116566964D01*
X142414424Y-116769522D01*
X142415845Y-116775118D01*
X142415846Y-116775123D01*
X142436119Y-116854945D01*
X142464392Y-116966269D01*
X142466809Y-116971512D01*
X142504010Y-117052208D01*
X142549377Y-117150616D01*
X142666533Y-117316389D01*
X142811938Y-117458035D01*
X142980720Y-117570812D01*
X142986023Y-117573090D01*
X142986026Y-117573092D01*
X143074707Y-117611192D01*
X143167228Y-117650942D01*
X143240244Y-117667464D01*
X143359579Y-117694467D01*
X143359584Y-117694468D01*
X143365216Y-117695742D01*
X143370987Y-117695969D01*
X143370989Y-117695969D01*
X143430756Y-117698317D01*
X143568053Y-117703712D01*
X143668499Y-117689148D01*
X143763231Y-117675413D01*
X143763236Y-117675412D01*
X143768945Y-117674584D01*
X143774409Y-117672729D01*
X143774414Y-117672728D01*
X143955693Y-117611192D01*
X143955698Y-117611190D01*
X143961165Y-117609334D01*
X144138276Y-117510147D01*
X144200934Y-117458035D01*
X144289913Y-117384031D01*
X144294345Y-117380345D01*
X144424147Y-117224276D01*
X144523334Y-117047165D01*
X144525190Y-117041698D01*
X144525192Y-117041693D01*
X144586728Y-116860414D01*
X144586729Y-116860409D01*
X144588584Y-116854945D01*
X144589412Y-116849236D01*
X144589413Y-116849231D01*
X144617179Y-116657727D01*
X144617712Y-116654053D01*
X144619232Y-116596000D01*
X144600658Y-116393859D01*
X144599090Y-116388299D01*
X144547125Y-116204046D01*
X144547124Y-116204044D01*
X144545557Y-116198487D01*
X144534978Y-116177033D01*
X144458331Y-116021609D01*
X144455776Y-116016428D01*
X144334320Y-115853779D01*
X144185258Y-115715987D01*
X144180375Y-115712906D01*
X144180371Y-115712903D01*
X144018464Y-115610748D01*
X144013581Y-115607667D01*
X143825039Y-115532446D01*
X143819379Y-115531320D01*
X143819375Y-115531319D01*
X143631613Y-115493971D01*
X143631610Y-115493971D01*
X143625946Y-115492844D01*
X143620171Y-115492768D01*
X143620167Y-115492768D01*
X143518793Y-115491441D01*
X143422971Y-115490187D01*
X143417274Y-115491166D01*
X143417273Y-115491166D01*
X143228607Y-115523585D01*
X143222910Y-115524564D01*
X143032463Y-115594824D01*
X142858010Y-115698612D01*
X142853670Y-115702418D01*
X142853666Y-115702421D01*
X142833723Y-115719911D01*
X142705392Y-115832455D01*
X142579720Y-115991869D01*
X142577031Y-115996980D01*
X142577029Y-115996983D01*
X142564073Y-116021609D01*
X142485203Y-116171515D01*
X142425007Y-116365378D01*
X142401148Y-116566964D01*
X139446500Y-116566964D01*
X139446500Y-114026964D01*
X142401148Y-114026964D01*
X142414424Y-114229522D01*
X142415845Y-114235118D01*
X142415846Y-114235123D01*
X142458806Y-114404273D01*
X142464392Y-114426269D01*
X142466809Y-114431512D01*
X142527740Y-114563682D01*
X142549377Y-114610616D01*
X142552710Y-114615332D01*
X142634947Y-114731695D01*
X142666533Y-114776389D01*
X142811938Y-114918035D01*
X142980720Y-115030812D01*
X142986023Y-115033090D01*
X142986026Y-115033092D01*
X143161921Y-115108662D01*
X143167228Y-115110942D01*
X143240244Y-115127464D01*
X143359579Y-115154467D01*
X143359584Y-115154468D01*
X143365216Y-115155742D01*
X143370987Y-115155969D01*
X143370989Y-115155969D01*
X143430756Y-115158317D01*
X143568053Y-115163712D01*
X143668499Y-115149148D01*
X143763231Y-115135413D01*
X143763236Y-115135412D01*
X143768945Y-115134584D01*
X143774409Y-115132729D01*
X143774414Y-115132728D01*
X143955693Y-115071192D01*
X143955698Y-115071190D01*
X143961165Y-115069334D01*
X144138276Y-114970147D01*
X144200934Y-114918035D01*
X144289913Y-114844031D01*
X144294345Y-114840345D01*
X144396835Y-114717115D01*
X144420453Y-114688718D01*
X144420455Y-114688715D01*
X144424147Y-114684276D01*
X144500972Y-114547096D01*
X154280729Y-114547096D01*
X154287163Y-114605371D01*
X154296365Y-114688718D01*
X154298113Y-114704553D01*
X154300723Y-114711684D01*
X154300723Y-114711686D01*
X154325878Y-114780424D01*
X154352553Y-114853319D01*
X154356789Y-114859622D01*
X154356789Y-114859623D01*
X154432957Y-114972972D01*
X154440908Y-114984805D01*
X154446527Y-114989918D01*
X154446528Y-114989919D01*
X154491469Y-115030812D01*
X154558076Y-115091419D01*
X154697293Y-115167008D01*
X154850522Y-115207207D01*
X154934477Y-115208526D01*
X155001319Y-115209576D01*
X155001322Y-115209576D01*
X155008916Y-115209695D01*
X155163332Y-115174329D01*
X155246047Y-115132728D01*
X155298072Y-115106563D01*
X155298075Y-115106561D01*
X155304855Y-115103151D01*
X155310626Y-115098222D01*
X155310629Y-115098220D01*
X155419536Y-115005204D01*
X155419536Y-115005203D01*
X155425314Y-115000269D01*
X155517755Y-114871624D01*
X155576842Y-114724641D01*
X155583305Y-114679231D01*
X155598581Y-114571891D01*
X155598581Y-114571888D01*
X155599162Y-114567807D01*
X155599307Y-114554000D01*
X155580276Y-114396733D01*
X155524280Y-114248546D01*
X155434553Y-114117992D01*
X155316275Y-114012611D01*
X155308889Y-114008700D01*
X155182988Y-113942039D01*
X155182989Y-113942039D01*
X155176274Y-113938484D01*
X155022633Y-113899892D01*
X155015034Y-113899852D01*
X155015033Y-113899852D01*
X154949181Y-113899507D01*
X154864221Y-113899062D01*
X154856841Y-113900834D01*
X154856839Y-113900834D01*
X154717563Y-113934271D01*
X154717560Y-113934272D01*
X154710184Y-113936043D01*
X154569414Y-114008700D01*
X154450039Y-114112838D01*
X154358950Y-114242444D01*
X154301406Y-114390037D01*
X154300414Y-114397570D01*
X154300414Y-114397571D01*
X154297373Y-114420674D01*
X154280729Y-114547096D01*
X144500972Y-114547096D01*
X144523334Y-114507165D01*
X144525190Y-114501698D01*
X144525192Y-114501693D01*
X144586728Y-114320414D01*
X144586729Y-114320409D01*
X144588584Y-114314945D01*
X144589412Y-114309236D01*
X144589413Y-114309231D01*
X144617179Y-114117727D01*
X144617712Y-114114053D01*
X144619232Y-114056000D01*
X144600658Y-113853859D01*
X144599090Y-113848299D01*
X144547125Y-113664046D01*
X144547124Y-113664044D01*
X144545557Y-113658487D01*
X144534978Y-113637033D01*
X144458331Y-113481609D01*
X144455776Y-113476428D01*
X144334320Y-113313779D01*
X144185258Y-113175987D01*
X144180375Y-113172906D01*
X144180371Y-113172903D01*
X144018464Y-113070748D01*
X144013581Y-113067667D01*
X143825039Y-112992446D01*
X143819379Y-112991320D01*
X143819375Y-112991319D01*
X143631613Y-112953971D01*
X143631610Y-112953971D01*
X143625946Y-112952844D01*
X143620171Y-112952768D01*
X143620167Y-112952768D01*
X143518793Y-112951441D01*
X143422971Y-112950187D01*
X143417274Y-112951166D01*
X143417273Y-112951166D01*
X143228607Y-112983585D01*
X143222910Y-112984564D01*
X143032463Y-113054824D01*
X142858010Y-113158612D01*
X142853670Y-113162418D01*
X142853666Y-113162421D01*
X142833723Y-113179911D01*
X142705392Y-113292455D01*
X142579720Y-113451869D01*
X142577031Y-113456980D01*
X142577029Y-113456983D01*
X142564073Y-113481609D01*
X142485203Y-113631515D01*
X142425007Y-113825378D01*
X142401148Y-114026964D01*
X139446500Y-114026964D01*
X139446500Y-111486964D01*
X142401148Y-111486964D01*
X142401526Y-111492730D01*
X142413571Y-111676500D01*
X142414424Y-111689522D01*
X142415845Y-111695118D01*
X142415846Y-111695123D01*
X142443641Y-111804563D01*
X142464392Y-111886269D01*
X142466809Y-111891512D01*
X142504010Y-111972208D01*
X142549377Y-112070616D01*
X142552710Y-112075332D01*
X142634318Y-112190805D01*
X142666533Y-112236389D01*
X142670675Y-112240424D01*
X142772777Y-112339886D01*
X142811938Y-112378035D01*
X142980720Y-112490812D01*
X142986023Y-112493090D01*
X142986026Y-112493092D01*
X143074707Y-112531192D01*
X143167228Y-112570942D01*
X143240244Y-112587464D01*
X143359579Y-112614467D01*
X143359584Y-112614468D01*
X143365216Y-112615742D01*
X143370987Y-112615969D01*
X143370989Y-112615969D01*
X143430756Y-112618317D01*
X143568053Y-112623712D01*
X143668499Y-112609148D01*
X143763231Y-112595413D01*
X143763236Y-112595412D01*
X143768945Y-112594584D01*
X143774409Y-112592729D01*
X143774414Y-112592728D01*
X143955693Y-112531192D01*
X143955698Y-112531190D01*
X143961165Y-112529334D01*
X144138276Y-112430147D01*
X144160963Y-112411279D01*
X144265696Y-112324172D01*
X144294345Y-112300345D01*
X144424147Y-112144276D01*
X144523334Y-111967165D01*
X144525190Y-111961698D01*
X144525192Y-111961693D01*
X144586728Y-111780414D01*
X144586729Y-111780409D01*
X144588584Y-111774945D01*
X144589412Y-111769236D01*
X144589413Y-111769231D01*
X144591752Y-111753096D01*
X147676729Y-111753096D01*
X147679745Y-111780414D01*
X147692011Y-111891512D01*
X147694113Y-111910553D01*
X147748553Y-112059319D01*
X147836908Y-112190805D01*
X147842527Y-112195918D01*
X147842528Y-112195919D01*
X147853903Y-112206269D01*
X147954076Y-112297419D01*
X148093293Y-112373008D01*
X148246522Y-112413207D01*
X148330477Y-112414526D01*
X148397319Y-112415576D01*
X148397322Y-112415576D01*
X148404916Y-112415695D01*
X148559332Y-112380329D01*
X148629742Y-112344917D01*
X148694072Y-112312563D01*
X148694075Y-112312561D01*
X148700855Y-112309151D01*
X148706626Y-112304222D01*
X148706629Y-112304220D01*
X148815536Y-112211204D01*
X148815536Y-112211203D01*
X148821314Y-112206269D01*
X148913755Y-112077624D01*
X148972842Y-111930641D01*
X148992940Y-111789419D01*
X148994581Y-111777891D01*
X148994581Y-111777888D01*
X148995162Y-111773807D01*
X148995307Y-111760000D01*
X148976276Y-111602733D01*
X148920280Y-111454546D01*
X148830553Y-111323992D01*
X148812940Y-111308299D01*
X148749750Y-111252000D01*
X148742001Y-111245096D01*
X156820729Y-111245096D01*
X156825810Y-111291115D01*
X156830131Y-111330251D01*
X156838113Y-111402553D01*
X156840723Y-111409684D01*
X156840723Y-111409686D01*
X156880984Y-111519704D01*
X156892553Y-111551319D01*
X156896789Y-111557622D01*
X156896789Y-111557623D01*
X156907830Y-111574053D01*
X156980908Y-111682805D01*
X156986527Y-111687918D01*
X156986528Y-111687919D01*
X157092460Y-111784309D01*
X157098076Y-111789419D01*
X157237293Y-111865008D01*
X157390522Y-111905207D01*
X157474477Y-111906526D01*
X157541319Y-111907576D01*
X157541322Y-111907576D01*
X157548916Y-111907695D01*
X157703332Y-111872329D01*
X157773742Y-111836917D01*
X157838072Y-111804563D01*
X157838075Y-111804561D01*
X157844855Y-111801151D01*
X157850626Y-111796222D01*
X157850629Y-111796220D01*
X157959536Y-111703204D01*
X157959536Y-111703203D01*
X157965314Y-111698269D01*
X158057755Y-111569624D01*
X158116842Y-111422641D01*
X158129991Y-111330251D01*
X158138581Y-111269891D01*
X158138581Y-111269888D01*
X158139162Y-111265807D01*
X158139307Y-111252000D01*
X158120276Y-111094733D01*
X158064280Y-110946546D01*
X157974553Y-110815992D01*
X157856275Y-110710611D01*
X157848889Y-110706700D01*
X157722988Y-110640039D01*
X157722989Y-110640039D01*
X157716274Y-110636484D01*
X157562633Y-110597892D01*
X157555034Y-110597852D01*
X157555033Y-110597852D01*
X157489181Y-110597507D01*
X157404221Y-110597062D01*
X157396841Y-110598834D01*
X157396839Y-110598834D01*
X157257563Y-110632271D01*
X157257560Y-110632272D01*
X157250184Y-110634043D01*
X157109414Y-110706700D01*
X156990039Y-110810838D01*
X156898950Y-110940444D01*
X156841406Y-111088037D01*
X156840414Y-111095570D01*
X156840414Y-111095571D01*
X156823551Y-111223664D01*
X156820729Y-111245096D01*
X148742001Y-111245096D01*
X148712275Y-111218611D01*
X148704889Y-111214700D01*
X148578988Y-111148039D01*
X148578989Y-111148039D01*
X148572274Y-111144484D01*
X148418633Y-111105892D01*
X148411034Y-111105852D01*
X148411033Y-111105852D01*
X148345181Y-111105507D01*
X148260221Y-111105062D01*
X148252841Y-111106834D01*
X148252839Y-111106834D01*
X148113563Y-111140271D01*
X148113560Y-111140272D01*
X148106184Y-111142043D01*
X147965414Y-111214700D01*
X147846039Y-111318838D01*
X147754950Y-111448444D01*
X147752190Y-111455524D01*
X147704545Y-111577727D01*
X147697406Y-111596037D01*
X147696414Y-111603570D01*
X147696414Y-111603571D01*
X147685099Y-111689522D01*
X147676729Y-111753096D01*
X144591752Y-111753096D01*
X144613432Y-111603571D01*
X144617712Y-111574053D01*
X144619232Y-111516000D01*
X144602164Y-111330251D01*
X144601187Y-111319613D01*
X144601186Y-111319610D01*
X144600658Y-111313859D01*
X144599090Y-111308299D01*
X144547125Y-111124046D01*
X144547124Y-111124044D01*
X144545557Y-111118487D01*
X144539811Y-111106834D01*
X144458331Y-110941609D01*
X144455776Y-110936428D01*
X144334320Y-110773779D01*
X144185258Y-110635987D01*
X144180375Y-110632906D01*
X144180371Y-110632903D01*
X144018464Y-110530748D01*
X144013581Y-110527667D01*
X143825039Y-110452446D01*
X143819379Y-110451320D01*
X143819375Y-110451319D01*
X143631613Y-110413971D01*
X143631610Y-110413971D01*
X143625946Y-110412844D01*
X143620171Y-110412768D01*
X143620167Y-110412768D01*
X143518793Y-110411441D01*
X143422971Y-110410187D01*
X143417274Y-110411166D01*
X143417273Y-110411166D01*
X143228607Y-110443585D01*
X143222910Y-110444564D01*
X143032463Y-110514824D01*
X142858010Y-110618612D01*
X142853670Y-110622418D01*
X142853666Y-110622421D01*
X142747344Y-110715664D01*
X142705392Y-110752455D01*
X142579720Y-110911869D01*
X142577031Y-110916980D01*
X142577029Y-110916983D01*
X142564768Y-110940288D01*
X142485203Y-111091515D01*
X142425007Y-111285378D01*
X142401148Y-111486964D01*
X139446500Y-111486964D01*
X139446500Y-108100933D01*
X142405500Y-108100933D01*
X142405501Y-109851066D01*
X142420266Y-109925301D01*
X142476516Y-110009484D01*
X142560699Y-110065734D01*
X142634933Y-110080500D01*
X143509858Y-110080500D01*
X144385066Y-110080499D01*
X144420818Y-110073388D01*
X144447126Y-110068156D01*
X144447128Y-110068155D01*
X144459301Y-110065734D01*
X144469621Y-110058839D01*
X144469622Y-110058838D01*
X144533168Y-110016377D01*
X144543484Y-110009484D01*
X144599734Y-109925301D01*
X144614500Y-109851067D01*
X144614499Y-108100934D01*
X144599734Y-108026699D01*
X144543484Y-107942516D01*
X144459301Y-107886266D01*
X144385067Y-107871500D01*
X143510142Y-107871500D01*
X142634934Y-107871501D01*
X142599182Y-107878612D01*
X142572874Y-107883844D01*
X142572872Y-107883845D01*
X142560699Y-107886266D01*
X142550379Y-107893161D01*
X142550378Y-107893162D01*
X142489985Y-107933516D01*
X142476516Y-107942516D01*
X142420266Y-108026699D01*
X142405500Y-108100933D01*
X139446500Y-108100933D01*
X139446500Y-105171000D01*
X140603848Y-105171000D01*
X140622428Y-105407083D01*
X140677711Y-105637354D01*
X140679604Y-105641925D01*
X140679605Y-105641927D01*
X140761984Y-105840805D01*
X140768336Y-105856141D01*
X140892070Y-106058057D01*
X141045868Y-106238132D01*
X141225943Y-106391930D01*
X141427859Y-106515664D01*
X141432429Y-106517557D01*
X141432433Y-106517559D01*
X141642073Y-106604395D01*
X141642075Y-106604396D01*
X141646646Y-106606289D01*
X141726499Y-106625460D01*
X141872104Y-106660417D01*
X141872110Y-106660418D01*
X141876917Y-106661572D01*
X142113000Y-106680152D01*
X142349083Y-106661572D01*
X142353890Y-106660418D01*
X142353896Y-106660417D01*
X142499501Y-106625460D01*
X142579354Y-106606289D01*
X142583925Y-106604396D01*
X142583927Y-106604395D01*
X142793567Y-106517559D01*
X142793571Y-106517557D01*
X142798141Y-106515664D01*
X143000057Y-106391930D01*
X143180132Y-106238132D01*
X143333930Y-106058057D01*
X143457664Y-105856141D01*
X143464017Y-105840805D01*
X143546395Y-105641927D01*
X143546396Y-105641925D01*
X143548289Y-105637354D01*
X143603572Y-105407083D01*
X143622152Y-105171000D01*
X143603572Y-104934917D01*
X143587654Y-104868611D01*
X143560393Y-104755062D01*
X143548289Y-104704646D01*
X143546395Y-104700073D01*
X143459559Y-104490433D01*
X143459557Y-104490429D01*
X143457664Y-104485859D01*
X143333930Y-104283943D01*
X143180132Y-104103868D01*
X143000057Y-103950070D01*
X142798141Y-103826336D01*
X142793571Y-103824443D01*
X142793567Y-103824441D01*
X142583927Y-103737605D01*
X142583925Y-103737604D01*
X142579354Y-103735711D01*
X142499501Y-103716540D01*
X142353896Y-103681583D01*
X142353890Y-103681582D01*
X142349083Y-103680428D01*
X142113000Y-103661848D01*
X141876917Y-103680428D01*
X141872110Y-103681582D01*
X141872104Y-103681583D01*
X141726499Y-103716540D01*
X141646646Y-103735711D01*
X141642075Y-103737604D01*
X141642073Y-103737605D01*
X141432433Y-103824441D01*
X141432429Y-103824443D01*
X141427859Y-103826336D01*
X141225943Y-103950070D01*
X141045868Y-104103868D01*
X140892070Y-104283943D01*
X140768336Y-104485859D01*
X140766443Y-104490429D01*
X140766441Y-104490433D01*
X140679605Y-104700073D01*
X140677711Y-104704646D01*
X140665607Y-104755062D01*
X140638347Y-104868611D01*
X140622428Y-104934917D01*
X140603848Y-105171000D01*
X139446500Y-105171000D01*
X139446500Y-102156206D01*
X139823501Y-102156206D01*
X139840806Y-102362278D01*
X139897807Y-102561066D01*
X139900625Y-102566548D01*
X139900626Y-102566552D01*
X139989514Y-102739509D01*
X139989517Y-102739513D01*
X139992334Y-102744995D01*
X140120786Y-102907061D01*
X140278271Y-103041091D01*
X140458789Y-103141980D01*
X140655466Y-103205884D01*
X140860809Y-103230370D01*
X140866944Y-103229898D01*
X140866946Y-103229898D01*
X141060856Y-103214977D01*
X141060860Y-103214976D01*
X141066998Y-103214504D01*
X141266178Y-103158892D01*
X141271682Y-103156112D01*
X141271684Y-103156111D01*
X141445262Y-103068431D01*
X141445264Y-103068430D01*
X141450763Y-103065652D01*
X141613722Y-102938334D01*
X141617748Y-102933670D01*
X141617751Y-102933667D01*
X141744819Y-102786457D01*
X141744820Y-102786455D01*
X141748848Y-102781789D01*
X141850995Y-102601979D01*
X141916270Y-102405753D01*
X141942189Y-102200586D01*
X141942602Y-102171000D01*
X141941151Y-102156206D01*
X142323501Y-102156206D01*
X142340806Y-102362278D01*
X142397807Y-102561066D01*
X142400625Y-102566548D01*
X142400626Y-102566552D01*
X142489514Y-102739509D01*
X142489517Y-102739513D01*
X142492334Y-102744995D01*
X142620786Y-102907061D01*
X142778271Y-103041091D01*
X142958789Y-103141980D01*
X143155466Y-103205884D01*
X143360809Y-103230370D01*
X143366944Y-103229898D01*
X143366946Y-103229898D01*
X143560856Y-103214977D01*
X143560860Y-103214976D01*
X143566998Y-103214504D01*
X143766178Y-103158892D01*
X143771682Y-103156112D01*
X143771684Y-103156111D01*
X143945262Y-103068431D01*
X143945264Y-103068430D01*
X143950763Y-103065652D01*
X144113722Y-102938334D01*
X144117748Y-102933670D01*
X144117751Y-102933667D01*
X144244819Y-102786457D01*
X144244820Y-102786455D01*
X144248848Y-102781789D01*
X144350995Y-102601979D01*
X144416270Y-102405753D01*
X144442189Y-102200586D01*
X144442602Y-102171000D01*
X144422422Y-101965189D01*
X144362651Y-101767217D01*
X144314108Y-101675921D01*
X144268459Y-101590067D01*
X144268457Y-101590064D01*
X144265565Y-101584625D01*
X144261674Y-101579855D01*
X144261672Y-101579851D01*
X144138758Y-101429143D01*
X144138755Y-101429140D01*
X144134863Y-101424368D01*
X144127966Y-101418662D01*
X143980271Y-101296478D01*
X143980266Y-101296475D01*
X143975522Y-101292550D01*
X143970101Y-101289619D01*
X143970100Y-101289618D01*
X143799032Y-101197122D01*
X143799027Y-101197120D01*
X143793612Y-101194192D01*
X143596063Y-101133040D01*
X143589938Y-101132396D01*
X143589937Y-101132396D01*
X143396526Y-101112068D01*
X143396524Y-101112068D01*
X143390397Y-101111424D01*
X143264229Y-101122906D01*
X143190591Y-101129607D01*
X143190590Y-101129607D01*
X143184450Y-101130166D01*
X142986066Y-101188554D01*
X142980601Y-101191411D01*
X142808261Y-101281508D01*
X142808257Y-101281511D01*
X142802801Y-101284363D01*
X142641635Y-101413943D01*
X142508708Y-101572360D01*
X142409082Y-101753578D01*
X142346553Y-101950696D01*
X142345867Y-101956813D01*
X142345866Y-101956817D01*
X142325608Y-102137419D01*
X142323501Y-102156206D01*
X141941151Y-102156206D01*
X141922422Y-101965189D01*
X141862651Y-101767217D01*
X141814108Y-101675921D01*
X141768459Y-101590067D01*
X141768457Y-101590064D01*
X141765565Y-101584625D01*
X141761674Y-101579855D01*
X141761672Y-101579851D01*
X141638758Y-101429143D01*
X141638755Y-101429140D01*
X141634863Y-101424368D01*
X141627966Y-101418662D01*
X141480271Y-101296478D01*
X141480266Y-101296475D01*
X141475522Y-101292550D01*
X141457410Y-101282757D01*
X141407001Y-101232763D01*
X141391623Y-101163451D01*
X141416159Y-101096829D01*
X141448433Y-101066829D01*
X141450763Y-101065652D01*
X141613722Y-100938334D01*
X141617748Y-100933670D01*
X141617751Y-100933667D01*
X141744819Y-100786457D01*
X141744820Y-100786455D01*
X141748848Y-100781789D01*
X141850995Y-100601979D01*
X141904103Y-100442329D01*
X141914325Y-100411601D01*
X141914326Y-100411598D01*
X141916270Y-100405753D01*
X141942189Y-100200586D01*
X141942602Y-100171000D01*
X141922422Y-99965189D01*
X141862651Y-99767217D01*
X141765565Y-99584625D01*
X141761674Y-99579855D01*
X141761672Y-99579851D01*
X141638758Y-99429143D01*
X141638755Y-99429140D01*
X141634863Y-99424368D01*
X141627966Y-99418662D01*
X141480271Y-99296478D01*
X141480266Y-99296475D01*
X141475522Y-99292550D01*
X141457410Y-99282757D01*
X141407001Y-99232763D01*
X141391623Y-99163451D01*
X141416159Y-99096829D01*
X141448433Y-99066829D01*
X141450763Y-99065652D01*
X141613722Y-98938334D01*
X141617748Y-98933670D01*
X141617751Y-98933667D01*
X141744819Y-98786457D01*
X141744820Y-98786455D01*
X141748848Y-98781789D01*
X141850995Y-98601979D01*
X141916270Y-98405753D01*
X141942189Y-98200586D01*
X141942602Y-98171000D01*
X141941151Y-98156206D01*
X142323501Y-98156206D01*
X142340806Y-98362278D01*
X142397807Y-98561066D01*
X142400625Y-98566548D01*
X142400626Y-98566552D01*
X142489514Y-98739509D01*
X142489517Y-98739513D01*
X142492334Y-98744995D01*
X142620786Y-98907061D01*
X142778271Y-99041091D01*
X142958789Y-99141980D01*
X143155466Y-99205884D01*
X143360809Y-99230370D01*
X143366944Y-99229898D01*
X143366946Y-99229898D01*
X143560856Y-99214977D01*
X143560860Y-99214976D01*
X143566998Y-99214504D01*
X143766178Y-99158892D01*
X143771682Y-99156112D01*
X143771684Y-99156111D01*
X143945262Y-99068431D01*
X143945264Y-99068430D01*
X143950763Y-99065652D01*
X144113722Y-98938334D01*
X144117748Y-98933670D01*
X144117751Y-98933667D01*
X144244819Y-98786457D01*
X144244820Y-98786455D01*
X144248848Y-98781789D01*
X144350995Y-98601979D01*
X144416270Y-98405753D01*
X144442189Y-98200586D01*
X144442602Y-98171000D01*
X144422422Y-97965189D01*
X144362651Y-97767217D01*
X144265565Y-97584625D01*
X144261674Y-97579855D01*
X144261672Y-97579851D01*
X144138758Y-97429143D01*
X144138755Y-97429140D01*
X144134863Y-97424368D01*
X144127966Y-97418662D01*
X143980271Y-97296478D01*
X143980266Y-97296475D01*
X143975522Y-97292550D01*
X143970103Y-97289620D01*
X143970100Y-97289618D01*
X143799032Y-97197122D01*
X143799027Y-97197120D01*
X143793612Y-97194192D01*
X143596063Y-97133040D01*
X143589938Y-97132396D01*
X143589937Y-97132396D01*
X143396526Y-97112068D01*
X143396524Y-97112068D01*
X143390397Y-97111424D01*
X143264229Y-97122906D01*
X143190591Y-97129607D01*
X143190590Y-97129607D01*
X143184450Y-97130166D01*
X142986066Y-97188554D01*
X142980601Y-97191411D01*
X142808261Y-97281508D01*
X142808257Y-97281511D01*
X142802801Y-97284363D01*
X142641635Y-97413943D01*
X142508708Y-97572360D01*
X142409082Y-97753578D01*
X142346553Y-97950696D01*
X142323501Y-98156206D01*
X141941151Y-98156206D01*
X141922422Y-97965189D01*
X141862651Y-97767217D01*
X141765565Y-97584625D01*
X141761674Y-97579855D01*
X141761672Y-97579851D01*
X141638758Y-97429143D01*
X141638755Y-97429140D01*
X141634863Y-97424368D01*
X141627966Y-97418662D01*
X141480271Y-97296478D01*
X141480266Y-97296475D01*
X141475522Y-97292550D01*
X141470103Y-97289620D01*
X141470100Y-97289618D01*
X141299032Y-97197122D01*
X141299027Y-97197120D01*
X141293612Y-97194192D01*
X141096063Y-97133040D01*
X141089938Y-97132396D01*
X141089937Y-97132396D01*
X140896526Y-97112068D01*
X140896524Y-97112068D01*
X140890397Y-97111424D01*
X140764229Y-97122906D01*
X140690591Y-97129607D01*
X140690590Y-97129607D01*
X140684450Y-97130166D01*
X140486066Y-97188554D01*
X140480601Y-97191411D01*
X140308261Y-97281508D01*
X140308257Y-97281511D01*
X140302801Y-97284363D01*
X140141635Y-97413943D01*
X140008708Y-97572360D01*
X139909082Y-97753578D01*
X139846553Y-97950696D01*
X139823501Y-98156206D01*
X139840806Y-98362278D01*
X139897807Y-98561066D01*
X139900625Y-98566548D01*
X139900626Y-98566552D01*
X139989514Y-98739509D01*
X139989517Y-98739513D01*
X139992334Y-98744995D01*
X140120786Y-98907061D01*
X140278271Y-99041091D01*
X140283647Y-99044095D01*
X140283649Y-99044097D01*
X140311612Y-99059725D01*
X140361318Y-99110419D01*
X140375725Y-99179939D01*
X140350261Y-99246211D01*
X140313043Y-99277562D01*
X140313418Y-99278134D01*
X140308695Y-99281225D01*
X140308520Y-99281372D01*
X140308270Y-99281503D01*
X140308263Y-99281507D01*
X140302801Y-99284363D01*
X140141635Y-99413943D01*
X140008708Y-99572360D01*
X139909082Y-99753578D01*
X139846553Y-99950696D01*
X139823501Y-100156206D01*
X139824743Y-100171000D01*
X139832912Y-100268269D01*
X139840806Y-100362278D01*
X139897807Y-100561066D01*
X139900625Y-100566548D01*
X139900626Y-100566552D01*
X139989514Y-100739509D01*
X139989517Y-100739513D01*
X139992334Y-100744995D01*
X140120786Y-100907061D01*
X140278271Y-101041091D01*
X140283647Y-101044095D01*
X140283649Y-101044097D01*
X140311612Y-101059725D01*
X140361318Y-101110419D01*
X140375725Y-101179939D01*
X140350261Y-101246211D01*
X140313043Y-101277562D01*
X140313418Y-101278134D01*
X140308695Y-101281225D01*
X140308520Y-101281372D01*
X140308270Y-101281503D01*
X140308263Y-101281507D01*
X140302801Y-101284363D01*
X140141635Y-101413943D01*
X140008708Y-101572360D01*
X139909082Y-101753578D01*
X139846553Y-101950696D01*
X139845867Y-101956813D01*
X139845866Y-101956817D01*
X139825608Y-102137419D01*
X139823501Y-102156206D01*
X139446500Y-102156206D01*
X139446500Y-93598000D01*
X139466502Y-93529879D01*
X139520158Y-93483386D01*
X139572500Y-93472000D01*
X141680511Y-93472000D01*
X141748632Y-93492002D01*
G37*
%TD.AperFunction*%
%TD*%
M02*
